<svg width="26" height="27" viewBox="0 0 26 27" fill="none" xmlns="http://www.w3.org/2000/svg">
<rect y="0.5" width="26" height="26" rx="13" fill="#E6E6E6"/>
<path d="M14.361 8.62463C14.4899 8.75356 14.5623 8.92839 14.5623 9.11069C14.5623 9.29299 14.4899 9.46783 14.361 9.59676L10.9578 12.9999L14.361 16.403C14.4862 16.5327 14.5555 16.7063 14.5539 16.8866C14.5524 17.0669 14.4801 17.2393 14.3526 17.3668C14.2251 17.4942 14.0527 17.5665 13.8724 17.5681C13.6922 17.5697 13.5185 17.5004 13.3888 17.3751L9.49965 13.4859C9.37077 13.357 9.29836 13.1822 9.29836 12.9999C9.29836 12.8176 9.37077 12.6427 9.49965 12.5138L13.3888 8.62463C13.5178 8.49574 13.6926 8.42334 13.8749 8.42334C14.0572 8.42334 14.232 8.49574 14.361 8.62463Z" fill="#4C4C4C"/>
</svg>
