<svg width="20" height="19" viewBox="0 0 20 19" fill="none" xmlns="http://www.w3.org/2000/svg">
<path d="M12.7319 9.32477L11.9775 9.32477L12.2715 10.0196C12.6443 10.9007 12.7235 11.8784 12.4975 12.8081C12.2715 13.7377 11.7523 14.5699 11.0166 15.1815C10.2809 15.7932 9.36787 16.1517 8.41258 16.2041C7.4573 16.2566 6.51051 16.0001 5.7123 15.4726C4.9141 14.9452 4.30689 14.1748 3.98052 13.2755C3.65415 12.3761 3.62595 11.3956 3.90011 10.479C4.17426 9.56241 4.73619 8.7584 5.50276 8.18596C6.26917 7.61364 7.19942 7.30318 8.15592 7.30049C8.15613 7.30049 8.15633 7.30049 8.15654 7.30049L17.1976 7.30049L17.1976 9.32477L12.7319 9.32477Z" stroke="#6B1687"/>
<path d="M4.15426 9.84979H2.24842C1.99431 9.84979 1.48608 10.0785 1.48608 10.9933C1.48608 11.3745 1.63855 12.1368 2.24842 12.1368H3.77309" stroke="#6B1687"/>
<path d="M6.07202 2.22644L8.74019 4.89461" stroke="#6B1687" stroke-linecap="round" stroke-linejoin="round"/>
<path d="M14.8391 2.22644L12.1709 4.89461" stroke="#6B1687" stroke-linecap="round" stroke-linejoin="round"/>
<path d="M10.4556 1.08295V3.75112" stroke="#6B1687" stroke-linecap="round" stroke-linejoin="round"/>
<circle cx="8.16829" cy="11.7556" r="1.40584" stroke="#6B1687"/>
</svg>
