<svg width="27" height="26" viewBox="0 0 27 26" fill="none" xmlns="http://www.w3.org/2000/svg">
<path fill-rule="evenodd" clip-rule="evenodd" d="M17.6096 1.08337C18.0581 1.08337 18.4221 1.44737 18.4221 1.89587L18.4226 2.81434C20.0044 2.92278 21.3181 3.46459 22.2479 4.39632C23.263 5.41573 23.7971 6.88148 23.7917 8.63973V18.523C23.7917 22.1327 21.4993 24.3751 17.8106 24.3751H8.64775C4.959 24.3751 2.66667 22.1012 2.66667 18.4407V8.63757C2.66667 5.23286 4.71098 3.04739 8.04508 2.81471L8.04575 1.89587C8.04575 1.44737 8.40975 1.08337 8.85825 1.08337C9.30675 1.08337 9.67075 1.44737 9.67075 1.89587L9.67042 2.79396H16.7966L16.7971 1.89587C16.7971 1.44737 17.1611 1.08337 17.6096 1.08337ZM22.1667 10.7294H4.29167V18.4407C4.29167 21.2205 5.83867 22.7501 8.64775 22.7501H17.8106C20.6197 22.7501 22.1667 21.2486 22.1667 18.523L22.1667 10.7294ZM18.0513 17.546C18.4998 17.546 18.8638 17.91 18.8638 18.3585C18.8638 18.807 18.4998 19.171 18.0513 19.171C17.6028 19.171 17.2345 18.807 17.2345 18.3585C17.2345 17.91 17.5931 17.546 18.0416 17.546H18.0513ZM13.244 17.546C13.6925 17.546 14.0565 17.91 14.0565 18.3585C14.0565 18.807 13.6925 19.171 13.244 19.171C12.7955 19.171 12.4272 18.807 12.4272 18.3585C12.4272 17.91 12.7858 17.546 13.2343 17.546H13.244ZM8.42665 17.546C8.87515 17.546 9.23915 17.91 9.23915 18.3585C9.23915 18.807 8.87515 19.171 8.42665 19.171C7.97815 19.171 7.60873 18.807 7.60873 18.3585C7.60873 17.91 7.9684 17.546 8.4169 17.546H8.42665ZM18.0513 13.3354C18.4998 13.3354 18.8638 13.6994 18.8638 14.1479C18.8638 14.5964 18.4998 14.9604 18.0513 14.9604C17.6028 14.9604 17.2345 14.5964 17.2345 14.1479C17.2345 13.6994 17.5931 13.3354 18.0416 13.3354H18.0513ZM13.244 13.3354C13.6925 13.3354 14.0565 13.6994 14.0565 14.1479C14.0565 14.5964 13.6925 14.9604 13.244 14.9604C12.7955 14.9604 12.4272 14.5964 12.4272 14.1479C12.4272 13.6994 12.7858 13.3354 13.2343 13.3354H13.244ZM8.42665 13.3354C8.87515 13.3354 9.23915 13.6994 9.23915 14.1479C9.23915 14.5964 8.87515 14.9604 8.42665 14.9604C7.97815 14.9604 7.60873 14.5964 7.60873 14.1479C7.60873 13.6994 7.9684 13.3354 8.4169 13.3354H8.42665ZM16.7966 4.41896H9.67042L9.67075 5.46112C9.67075 5.90962 9.30675 6.27362 8.85825 6.27362C8.40975 6.27362 8.04575 5.90962 8.04575 5.46112L8.04517 4.44355C5.61825 4.64742 4.29167 6.11855 4.29167 8.63757V9.10437H22.1667L22.1667 8.63757C22.171 7.29965 21.8113 6.25965 21.0974 5.54465C20.4707 4.91611 19.5546 4.54072 18.4231 4.44407L18.4221 5.46112C18.4221 5.90962 18.0581 6.27362 17.6096 6.27362C17.1611 6.27362 16.7971 5.90962 16.7971 5.46112L16.7966 4.41896Z" fill="#6B1687"/>
</svg>
