<svg width="22" height="22" viewBox="0 0 22 22" fill="none" xmlns="http://www.w3.org/2000/svg">
<path fill-rule="evenodd" clip-rule="evenodd" d="M14.4773 0.916687C14.8568 0.916687 15.1648 1.22469 15.1648 1.60419L15.1652 2.38135C16.5036 2.47311 17.6153 2.93156 18.402 3.71995C19.2609 4.58253 19.7128 5.82278 19.7083 7.31053V15.6733C19.7083 18.7276 17.7686 20.6251 14.6473 20.6251H6.89417C3.77292 20.6251 1.83325 18.701 1.83325 15.6036V7.3087C1.83325 4.42779 3.56305 2.57855 6.38421 2.38166L6.38478 1.60419C6.38478 1.22469 6.69278 0.916687 7.07228 0.916687C7.45178 0.916687 7.75978 1.22469 7.75978 1.60419L7.7595 2.3641H13.7893L13.7898 1.60419C13.7898 1.22469 14.0978 0.916687 14.4773 0.916687ZM18.3333 9.07869H3.20825V15.6036C3.20825 17.9558 4.51725 19.2501 6.89417 19.2501H14.6473C17.0243 19.2501 18.3333 17.9796 18.3333 15.6733L18.3333 9.07869ZM14.851 14.8466C15.2305 14.8466 15.5385 15.1546 15.5385 15.5341C15.5385 15.9136 15.2305 16.2216 14.851 16.2216C14.4715 16.2216 14.1599 15.9136 14.1599 15.5341C14.1599 15.1546 14.4633 14.8466 14.8428 14.8466H14.851ZM10.7833 14.8466C11.1628 14.8466 11.4708 15.1546 11.4708 15.5341C11.4708 15.9136 11.1628 16.2216 10.7833 16.2216C10.4038 16.2216 10.0921 15.9136 10.0921 15.5341C10.0921 15.1546 10.3956 14.8466 10.7751 14.8466H10.7833ZM6.70708 14.8466C7.08658 14.8466 7.39458 15.1546 7.39458 15.5341C7.39458 15.9136 7.08658 16.2216 6.70708 16.2216C6.32758 16.2216 6.01499 15.9136 6.01499 15.5341C6.01499 15.1546 6.31933 14.8466 6.69883 14.8466H6.70708ZM14.851 11.2838C15.2305 11.2838 15.5385 11.5918 15.5385 11.9713C15.5385 12.3508 15.2305 12.6588 14.851 12.6588C14.4715 12.6588 14.1599 12.3508 14.1599 11.9713C14.1599 11.5918 14.4633 11.2838 14.8428 11.2838H14.851ZM10.7833 11.2838C11.1628 11.2838 11.4708 11.5918 11.4708 11.9713C11.4708 12.3508 11.1628 12.6588 10.7833 12.6588C10.4038 12.6588 10.0921 12.3508 10.0921 11.9713C10.0921 11.5918 10.3956 11.2838 10.7751 11.2838H10.7833ZM6.70708 11.2838C7.08658 11.2838 7.39458 11.5918 7.39458 11.9713C7.39458 12.3508 7.08658 12.6588 6.70708 12.6588C6.32758 12.6588 6.01499 12.3508 6.01499 11.9713C6.01499 11.5918 6.31933 11.2838 6.69883 11.2838H6.70708ZM13.7893 3.7391H7.7595L7.75978 4.62094C7.75978 5.00044 7.45178 5.30844 7.07228 5.30844C6.69278 5.30844 6.38478 5.00044 6.38478 4.62094L6.38429 3.75991C4.33074 3.93242 3.20825 5.17722 3.20825 7.3087V7.70369H18.3333L18.3333 7.3087C18.3369 6.17661 18.0326 5.29661 17.4285 4.69161C16.8982 4.15977 16.123 3.84214 15.1656 3.76035L15.1648 4.62094C15.1648 5.00044 14.8568 5.30844 14.4773 5.30844C14.0978 5.30844 13.7898 5.00044 13.7898 4.62094L13.7893 3.7391Z" fill="#6B1687"/>
</svg>
