<svg width="19" height="19" viewBox="0 0 19 19" fill="none" xmlns="http://www.w3.org/2000/svg">
<path fill-rule="evenodd" clip-rule="evenodd" d="M3.45117 4.00654C3.45275 4.00654 3.41317 4.04771 3.3633 4.09679C3.17171 4.28283 2.77509 4.66996 2.77109 5.47983C2.7648 6.61271 3.50975 8.71616 7.0968 12.3024C10.6672 15.8712 12.7675 16.6249 13.9028 16.6249H13.9194C14.7293 16.621 15.1156 16.2235 15.3024 16.0327C15.3594 15.9742 15.4053 15.9314 15.4378 15.9045C16.2263 15.1112 16.63 14.5207 16.6261 14.1422C16.6205 13.7559 16.14 13.2991 15.4758 12.6674C15.2644 12.4663 15.0348 12.2478 14.7926 12.0055C14.1648 11.3793 13.8537 11.4862 13.1697 11.7269C12.2236 12.0586 10.9253 12.5098 8.90813 10.4919C6.8878 8.47312 7.33984 7.17637 7.67075 6.23033C7.90984 5.54633 8.01909 5.23441 7.3905 4.60583C7.1443 4.36041 6.92342 4.12766 6.71996 3.91391C6.09217 3.25366 5.63934 2.77629 5.25538 2.77075H5.24905C4.86984 2.77075 4.28084 3.17608 3.44721 4.00971C3.44959 4.00733 3.45038 4.00654 3.45117 4.00654ZM13.9035 17.8124C11.9307 17.8124 9.35859 16.2417 6.25763 13.1424C3.1448 10.0303 1.57175 7.45029 1.58356 5.4735C1.59075 4.16725 2.27555 3.49829 2.53284 3.24733C2.5463 3.23071 2.59221 3.18558 2.60805 3.16975C3.7433 2.03371 4.50884 1.57454 5.27042 1.58313C6.15471 1.59512 6.78409 2.25696 7.5805 3.09533C7.77763 3.30275 7.99138 3.52837 8.22967 3.76587C9.3855 4.92171 9.05617 5.86458 8.79175 6.62141C8.50359 7.44712 8.25421 8.15962 9.7473 9.65271C11.242 11.1458 11.9545 10.8964 12.777 10.6059C13.5346 10.3415 14.4751 10.0105 15.6325 11.1664C15.8669 11.4007 16.0893 11.6121 16.2944 11.8076C17.1367 12.608 17.8017 13.2405 17.8129 14.1272C17.8223 14.8832 17.3631 15.6535 16.2295 16.788L15.7275 16.4476L16.1519 16.8624C15.9009 17.1197 15.2328 17.8053 13.9257 17.8124H13.9035Z" fill="#6B1687"/>
</svg>
