<svg width="23" height="22" viewBox="0 0 23 22" fill="none" xmlns="http://www.w3.org/2000/svg">
<path d="M13.5745 3.01636C14.3383 3.02388 14.9604 3.40007 15.3227 4.07722C15.4162 4.25591 15.5466 4.5169 15.6832 4.79221L15.848 5.12511L15.929 5.28857L16.0078 5.45409C16.0392 5.50676 16.0944 5.54438 16.1652 5.54438C18.0551 5.54438 19.5986 7.01906 19.5986 8.82478V13.294C19.5986 15.0997 18.0551 16.5744 16.1652 16.5744H7.28269C5.38491 16.5744 3.84937 15.0997 3.84937 13.294V8.82478C3.84937 7.01906 5.38491 5.54438 7.28269 5.54438C7.34569 5.54438 7.40869 5.51428 7.43231 5.45409L7.47956 5.3638C7.70005 4.9199 7.96778 4.37818 8.12527 4.07722C8.48751 3.40007 9.10172 3.02388 9.86556 3.01636H13.5745ZM11.724 7.83916C10.8971 7.83916 10.1175 8.14764 9.52695 8.71193C8.94423 9.27622 8.62137 10.0136 8.62925 10.796C8.62925 11.586 8.95211 12.3234 9.53483 12.8877C10.1254 13.4444 10.8971 13.7529 11.724 13.7529C12.5744 13.7529 13.3461 13.4219 13.9052 12.8877C14.4643 12.3535 14.8108 11.6161 14.8187 10.796C14.8187 10.0136 14.4958 9.26869 13.9131 8.7044C13.3304 8.14764 12.5508 7.83916 11.724 7.83916ZM11.724 8.96774C12.2358 8.96774 12.7162 9.15583 13.0784 9.50193C13.4406 9.84803 13.6375 10.307 13.6375 10.796C13.6296 11.8042 12.7792 12.6243 11.724 12.6243C11.2121 12.6243 10.7318 12.4362 10.3695 12.0901C10.0073 11.744 9.81044 11.2851 9.81044 10.796V10.7885C9.80256 10.3145 9.99943 9.85555 10.3617 9.50946C10.7318 9.15583 11.2121 8.96774 11.724 8.96774ZM16.1416 7.65858C15.7479 7.65858 15.4329 7.96706 15.4329 8.34326C15.4329 8.71945 15.7479 9.0204 16.1416 9.0204C16.5353 9.0204 16.8582 8.71945 16.8582 8.34326C16.8582 7.96706 16.5353 7.65858 16.1416 7.65858Z" fill="#6B1687"/>
</svg>
