<svg width="17" height="14" viewBox="0 0 17 14" fill="none" xmlns="http://www.w3.org/2000/svg">
<path d="M10.5745 0.0163574C11.3383 0.0238813 11.9604 0.400075 12.3227 1.07722C12.4162 1.25591 12.5466 1.5169 12.6832 1.79221L12.848 2.12511L12.929 2.28857L13.0078 2.45409C13.0392 2.50676 13.0944 2.54438 13.1652 2.54438C15.0551 2.54438 16.5986 4.01906 16.5986 5.82478V10.294C16.5986 12.0997 15.0551 13.5744 13.1652 13.5744H4.28269C2.38491 13.5744 0.849365 12.0997 0.849365 10.294V5.82478C0.849365 4.01906 2.38491 2.54438 4.28269 2.54438C4.34569 2.54438 4.40869 2.51428 4.43231 2.45409L4.47956 2.3638C4.70005 1.9199 4.96778 1.37818 5.12527 1.07722C5.48751 0.400075 6.10172 0.0238813 6.86556 0.0163574H10.5745ZM8.72397 4.83916C7.89713 4.83916 7.11755 5.14764 6.52695 5.71193C5.94423 6.27622 5.62137 7.01355 5.62925 7.79604C5.62925 8.58604 5.95211 9.32338 6.53483 9.88767C7.12542 10.4444 7.89713 10.7529 8.72397 10.7529C9.57442 10.7529 10.3461 10.4219 10.9052 9.88767C11.4643 9.35348 11.8108 8.61614 11.8187 7.79604C11.8187 7.01355 11.4958 6.26869 10.9131 5.7044C10.3304 5.14764 9.5508 4.83916 8.72397 4.83916ZM8.72397 5.96774C9.23582 5.96774 9.71617 6.15583 10.0784 6.50193C10.4406 6.84803 10.6375 7.30699 10.6375 7.79604C10.6296 8.80424 9.77916 9.62434 8.72397 9.62434C8.21212 9.62434 7.73177 9.43624 7.36954 9.09014C7.0073 8.74404 6.81044 8.28509 6.81044 7.79604V7.78851C6.80256 7.31451 6.99943 6.85555 7.36166 6.50946C7.73177 6.15583 8.21212 5.96774 8.72397 5.96774ZM13.1416 4.65858C12.7479 4.65858 12.4329 4.96706 12.4329 5.34326C12.4329 5.71945 12.7479 6.0204 13.1416 6.0204C13.5353 6.0204 13.8582 5.71945 13.8582 5.34326C13.8582 4.96706 13.5353 4.65858 13.1416 4.65858Z" fill="#00137F"/>
</svg>
