<svg width="20" height="20" viewBox="0 0 20 20" fill="none" xmlns="http://www.w3.org/2000/svg">
<path d="M13.9888 6.84448L10.7055 10.0723C10.3513 9.90165 9.94823 9.86174 9.56747 9.95957C9.18671 10.0574 8.85278 10.2867 8.62471 10.6069C8.39663 10.9271 8.28909 11.3176 8.32108 11.7094C8.35308 12.1013 8.52255 12.4692 8.79955 12.7481C9.07655 13.0271 9.44325 13.1992 9.83484 13.2339C10.2264 13.2687 10.6177 13.1639 10.9395 12.9381C11.2613 12.7123 11.493 12.38 11.5935 12C11.694 11.6199 11.6569 11.2165 11.4888 10.8611L14.7777 7.63337L13.9888 6.84448Z" fill="#6B1687"/>
<path d="M9.99998 2.36109C8.25149 2.35909 6.53895 2.8575 5.0646 3.79746C3.59026 4.73743 2.4157 6.07968 1.67965 7.6657C0.943598 9.25171 0.676797 11.0152 0.910756 12.748C1.14472 14.4808 1.86966 16.1104 2.99998 17.4444L3.16665 17.6389H16.8333L17 17.4444C18.1303 16.1104 18.8552 14.4808 19.0892 12.748C19.3232 11.0152 19.0564 9.25171 18.3203 7.6657C17.5843 6.07968 16.4097 4.73743 14.9354 3.79746C13.461 2.8575 11.7485 2.35909 9.99998 2.36109ZM16.3 16.5278H3.69998C2.70314 15.2804 2.10151 13.7637 1.9722 12.1722H3.88887V11.0611H1.9722C2.06524 9.29705 2.73913 7.61331 3.88887 6.2722L5.24998 7.63331L6.03331 6.84998L4.68331 5.48331C6.00735 4.31305 7.68138 3.61375 9.44443 3.49442V5.43887H10.5555V3.49998C12.503 3.64121 14.3325 4.48644 15.7025 5.87782C17.0724 7.26921 17.889 9.11164 18 11.0611H16.0666V12.1722H18.0278C17.8985 13.7637 17.2968 15.2804 16.3 16.5278Z" fill="#6B1687"/>
</svg>
