<svg width="20" height="20" viewBox="0 0 20 20" fill="none" xmlns="http://www.w3.org/2000/svg">
<g clip-path="url(#clip0_4803_2)">
<path d="M13.9887 6.84444L10.7054 10.0722C10.3512 9.90161 9.94811 9.8617 9.56735 9.95953C9.18658 10.0574 8.85266 10.2866 8.62458 10.6068C8.39651 10.9271 8.28897 11.3176 8.32096 11.7094C8.35296 12.1012 8.52243 12.4691 8.79943 12.7481C9.07643 13.0271 9.44313 13.1991 9.83472 13.2339C10.2263 13.2687 10.6176 13.1639 10.9394 12.9381C11.2612 12.7123 11.4928 12.38 11.5934 11.9999C11.6939 11.6199 11.6568 11.2165 11.4887 10.8611L14.7776 7.63333L13.9887 6.84444Z" fill="#00137F"/>
<path d="M10.0002 2.36111C8.25173 2.35911 6.53919 2.85752 5.06485 3.79749C3.5905 4.73745 2.41595 6.0797 1.67989 7.66572C0.943842 9.25174 0.677041 11.0153 0.911 12.748C1.14496 14.4808 1.86991 16.1104 3.00023 17.4444L3.16689 17.6389H16.8336L17.0002 17.4444C18.1305 16.1104 18.8555 14.4808 19.0895 12.748C19.3234 11.0153 19.0566 9.25174 18.3206 7.66572C17.5845 6.0797 16.4099 4.73745 14.9356 3.79749C13.4613 2.85752 11.7487 2.35911 10.0002 2.36111V2.36111ZM16.3002 16.5278H3.70023C2.70338 15.2804 2.10175 13.7637 1.97245 12.1722H3.88911V11.0611H1.97245C2.06548 9.29707 2.73937 7.61334 3.88911 6.27222L5.25023 7.63334L6.03356 6.85L4.68356 5.48334C6.0076 4.31308 7.68162 3.61378 9.44467 3.49445V5.43889H10.5558V3.5C12.5033 3.64124 14.3328 4.48646 15.7027 5.87785C17.0726 7.26924 17.8893 9.11167 18.0002 11.0611H16.0669V12.1722H18.028C17.8987 13.7637 17.2971 15.2804 16.3002 16.5278V16.5278Z" fill="#00137F"/>
</g>
<defs>
<clipPath id="clip0_4803_2">
<rect width="20" height="20" fill="white"/>
</clipPath>
</defs>
</svg>
