<svg width="74" height="74" viewBox="0 0 74 74" fill="none" xmlns="http://www.w3.org/2000/svg">
<circle cx="37" cy="37" r="37" fill="#89CEF7"/>
<path fill-rule="evenodd" clip-rule="evenodd" d="M49.6043 46.2896C49.6043 51.2336 42.4041 51.8051 36.9895 51.8051L36.6021 51.8048C33.1524 51.7969 24.3716 51.5919 24.3716 46.2596C24.3716 41.4165 31.2825 40.7693 36.6558 40.7449L37.377 40.7445C40.8265 40.7523 49.6043 40.9574 49.6043 46.2896ZM36.9895 42.9941C30.2019 42.9941 26.761 44.0921 26.761 46.2596C26.761 48.4466 30.2019 49.5551 36.9895 49.5551C43.7756 49.5551 47.2148 48.4571 47.2148 46.2896C47.2148 44.1026 43.7756 42.9941 36.9895 42.9941ZM36.9895 21.9995C41.6538 21.9995 45.4466 25.5725 45.4466 29.9645C45.4466 34.3565 41.6538 37.928 36.9895 37.928H36.9386C32.2839 37.9145 28.5133 34.34 28.5292 29.96C28.5292 25.5725 32.3237 21.9995 36.9895 21.9995ZM36.9895 24.1415C33.579 24.1415 30.804 26.753 30.804 29.9645C30.7929 33.1655 33.5471 35.7755 36.9433 35.7875L36.9895 36.8585V35.7875C40.3985 35.7875 43.1719 33.1745 43.1719 29.9645C43.1719 26.753 40.3985 24.1415 36.9895 24.1415Z" fill="#00137F"/>
</svg>
