<svg width="74" height="74" viewBox="0 0 74 74" fill="none" xmlns="http://www.w3.org/2000/svg">
<circle cx="37" cy="37" r="37" fill="#89CEF7"/>
<g clip-path="url(#clip0_4799_75)">
<path fill-rule="evenodd" clip-rule="evenodd" d="M45.6043 43.2896C45.6043 48.2336 38.4041 48.8051 32.9895 48.8051L32.6021 48.8048C29.1524 48.7969 20.3716 48.5919 20.3716 43.2596C20.3716 38.4165 27.2825 37.7693 32.6558 37.7449L33.377 37.7445C36.8265 37.7523 45.6043 37.9574 45.6043 43.2896ZM32.9895 39.9941C26.2019 39.9941 22.761 41.0921 22.761 43.2596C22.761 45.4466 26.2019 46.5551 32.9895 46.5551C39.7756 46.5551 43.2148 45.4571 43.2148 43.2896C43.2148 41.1026 39.7756 39.9941 32.9895 39.9941ZM32.9895 18.9995C37.6538 18.9995 41.4466 22.5725 41.4466 26.9645C41.4466 31.3565 37.6538 34.928 32.9895 34.928H32.9386C28.2839 34.9145 24.5133 31.34 24.5292 26.96C24.5292 22.5725 28.3237 18.9995 32.9895 18.9995ZM32.9895 21.1415C29.579 21.1415 26.804 23.753 26.804 26.9645C26.7929 30.1655 29.5471 32.7755 32.9433 32.7875L32.9895 33.8585V32.7875C36.3985 32.7875 39.1719 30.1745 39.1719 26.9645C39.1719 23.753 36.3985 21.1415 32.9895 21.1415Z" fill="#00137F"/>
<circle cx="47" cy="45" r="8.9" fill="#89CEF7" stroke="#00137F" stroke-width="2.2"/>
<path fill-rule="evenodd" clip-rule="evenodd" d="M51.7451 42.2463C52.085 42.5747 52.085 43.1059 51.7451 43.4343L46.2389 48.7534C46.0696 48.9182 45.8468 49 45.624 49C45.4025 49 45.1785 48.9182 45.0092 48.7534L42.2549 46.0939C41.915 45.7655 41.915 45.2342 42.2549 44.9059C42.5949 44.5775 43.1448 44.5775 43.4847 44.9059L45.624 46.9703L50.5153 42.2463C50.8552 41.9179 51.4051 41.9179 51.7451 42.2463Z" fill="#00137F"/>
</g>
<defs>
<clipPath id="clip0_4799_75">
<rect width="38.2314" height="36" fill="white" transform="translate(20 19)"/>
</clipPath>
</defs>
</svg>
