<svg width="24" height="24" viewBox="0 0 24 24" fill="none" xmlns="http://www.w3.org/2000/svg">
<path d="M16.8 17.9999C17.7941 17.9999 18.6 17.194 18.6 16.1999C18.6 15.2058 17.7941 14.3999 16.8 14.3999C15.8059 14.3999 15 15.2058 15 16.1999C15 17.194 15.8059 17.9999 16.8 17.9999Z" fill="#6B1687"/>
<path d="M19.3199 10.8002H17.3999C16.6799 7.56019 13.5599 5.40018 10.3199 6.12018C7.9199 6.60018 5.9999 8.40019 5.5199 10.8002H4.6799C3.4799 10.8002 2.3999 11.8802 2.3999 13.0802V14.6402C2.3999 15.4802 3.1199 16.2002 3.9599 16.2002H4.3199C4.3199 14.6402 5.6399 13.3202 7.1999 13.3202C8.7599 13.3202 10.0799 14.6402 10.0799 16.2002H13.9199C13.9199 14.6402 15.2399 13.3202 16.7999 13.3202C18.3599 13.3202 19.6799 14.6402 19.6799 16.2002H20.0399C20.8799 16.2002 21.5999 15.4802 21.5999 14.6402V13.2002C21.5999 11.8802 20.5199 10.8002 19.3199 10.8002ZM7.4399 10.8002C8.0399 8.52019 10.4399 7.32018 12.5999 7.92018C13.9199 8.28018 14.9999 9.36019 15.4799 10.8002H7.4399ZM7.1999 14.4002C6.2399 14.4002 5.3999 15.2402 5.3999 16.2002C5.3999 17.1602 6.2399 18.0002 7.1999 18.0002C8.1599 18.0002 8.9999 17.1602 8.9999 16.2002C8.9999 15.2402 8.1599 14.4002 7.1999 14.4002Z" fill="#6B1687"/>
</svg>
