<svg width="20" height="20" viewBox="0 0 20 20" fill="none" xmlns="http://www.w3.org/2000/svg">
<path d="M13.989 6.84445L10.7056 10.0722C10.3514 9.90162 9.94836 9.86171 9.56759 9.95954C9.18683 10.0574 8.8529 10.2866 8.62483 10.6069C8.39675 10.9271 8.28921 11.3176 8.32121 11.7094C8.3532 12.1012 8.52267 12.4691 8.79967 12.7481C9.07668 13.0271 9.44337 13.1991 9.83496 13.2339C10.2266 13.2687 10.6178 13.1639 10.9396 12.9381C11.2615 12.7123 11.4931 12.38 11.5936 11.9999C11.6941 11.6199 11.6571 11.2165 11.489 10.8611L14.7779 7.63334L13.989 6.84445Z" fill="#6B1687"/>
<path d="M9.99998 2.36112C8.25149 2.35912 6.53895 2.85753 5.0646 3.79749C3.59026 4.73746 2.4157 6.07971 1.67965 7.66573C0.943598 9.25174 0.676797 11.0153 0.910756 12.748C1.14472 14.4808 1.86966 16.1104 2.99998 17.4445L3.16665 17.6389H16.8333L17 17.4445C18.1303 16.1104 18.8552 14.4808 19.0892 12.748C19.3232 11.0153 19.0564 9.25174 18.3203 7.66573C17.5843 6.07971 16.4097 4.73746 14.9354 3.79749C13.461 2.85753 11.7485 2.35912 9.99998 2.36112ZM16.3 16.5278H3.69998C2.70314 15.2804 2.10151 13.7638 1.9722 12.1722H3.88887V11.0611H1.9722C2.06524 9.29708 2.73913 7.61334 3.88887 6.27223L5.24998 7.63334L6.03331 6.85001L4.68331 5.48334C6.00735 4.31308 7.68138 3.61378 9.44443 3.49445V5.4389H10.5555V3.50001C12.503 3.64124 14.3325 4.48647 15.7025 5.87786C17.0724 7.26924 17.889 9.11167 18 11.0611H16.0666V12.1722H18.0278C17.8985 13.7638 17.2968 15.2804 16.3 16.5278Z" fill="#6B1687"/>
</svg>
