<svg width="39" height="40" viewBox="0 0 39 40" fill="none" xmlns="http://www.w3.org/2000/svg">
<rect y="0.1875" width="39" height="39" rx="6" fill="#FF4A4A"/>
<path fill-rule="evenodd" clip-rule="evenodd" d="M25.9615 16.6297C26.3229 16.6595 26.5924 16.9754 26.5635 17.3367C26.5583 17.3962 26.084 23.2684 25.811 25.7315C25.6413 27.2601 24.6315 28.1902 23.1073 28.2182C21.9409 28.2384 20.8157 28.2497 19.7158 28.2497C18.5302 28.2497 17.3743 28.2366 16.2307 28.213C14.7677 28.1841 13.7553 27.2356 13.5899 25.7376C13.3143 23.2526 12.8427 17.3954 12.8383 17.3367C12.8085 16.9754 13.078 16.6586 13.4394 16.6297C13.7955 16.6201 14.1175 16.8704 14.1464 17.2309C14.1492 17.2688 14.342 19.6608 14.5521 22.0274L14.5943 22.4996C14.7001 23.676 14.8074 24.8063 14.8945 25.5932C14.9882 26.4446 15.4475 26.8839 16.2578 26.9005C18.4453 26.9469 20.6774 26.9495 23.0837 26.9057C23.9447 26.8891 24.4102 26.4586 24.5064 25.5871C24.7777 23.1424 25.2502 17.2904 25.2554 17.2309C25.2843 16.8704 25.6037 16.6184 25.9615 16.6297ZM21.5522 10.75C22.3555 10.75 23.0616 11.2916 23.269 12.0677L23.4912 13.1711C23.563 13.5328 23.8805 13.797 24.248 13.8028L27.1195 13.8029C27.4818 13.8029 27.7758 14.0969 27.7758 14.4591C27.7758 14.8214 27.4818 15.1154 27.1195 15.1154L24.2736 15.1152C24.2692 15.1153 24.2648 15.1154 24.2604 15.1154L24.239 15.1145L15.1614 15.1153C15.1544 15.1153 15.1473 15.1154 15.1402 15.1154L15.1268 15.1145L12.2813 15.1154C11.919 15.1154 11.625 14.8214 11.625 14.4591C11.625 14.0969 11.919 13.8029 12.2813 13.8029L15.1521 13.802L15.2405 13.7964C15.5698 13.7537 15.8434 13.5036 15.9102 13.1711L16.1229 12.1071C16.339 11.2916 17.0451 10.75 17.8484 10.75H21.5522ZM21.5522 12.0625H17.8484C17.6384 12.0625 17.4537 12.2034 17.4004 12.4055L17.1965 13.4293C17.1706 13.5589 17.1328 13.6839 17.0845 13.8031H22.3163C22.2679 13.6839 22.2301 13.5589 22.2041 13.4293L21.9915 12.3653C21.9469 12.2034 21.7622 12.0625 21.5522 12.0625Z" fill="white"/>
</svg>
