<svg width="20" height="20" viewBox="0 0 20 20" fill="none" xmlns="http://www.w3.org/2000/svg">
<path d="M16.9531 14.2969H15.58C15.4863 14.2969 15.3984 14.3379 15.3398 14.4102C15.2031 14.5762 15.0566 14.7364 14.9023 14.8887C14.2712 15.5204 13.5237 16.0238 12.7011 16.3711C11.8489 16.7311 10.9329 16.9157 10.0078 16.9141C9.07221 16.9141 8.16596 16.7305 7.3144 16.3711C6.4918 16.0238 5.7443 15.5204 5.11323 14.8887C4.48103 14.2591 3.97693 13.5129 3.62885 12.6914C3.26752 11.8399 3.08588 10.9356 3.08588 10C3.08588 9.06448 3.26948 8.16019 3.62885 7.30862C3.97651 6.48636 4.47651 5.74612 5.11323 5.11136C5.74995 4.47659 6.49018 3.97659 7.3144 3.62894C8.16596 3.26956 9.07221 3.08597 10.0078 3.08597C10.9433 3.08597 11.8496 3.26761 12.7011 3.62894C13.5253 3.97659 14.2656 4.47659 14.9023 5.11136C15.0566 5.26565 15.2011 5.42581 15.3398 5.58987C15.3984 5.66214 15.4882 5.70315 15.58 5.70315H16.9531C17.0761 5.70315 17.1523 5.56644 17.0839 5.46292C15.5859 3.1348 12.9648 1.59378 9.98627 1.60159C5.30659 1.61331 1.55463 5.41214 1.60151 10.086C1.64838 14.6856 5.39448 18.3985 10.0078 18.3985C12.9785 18.3985 15.5878 16.8594 17.0839 14.5371C17.1503 14.4336 17.0761 14.2969 16.9531 14.2969ZM18.6894 9.87698L15.9179 7.68948C15.8144 7.60745 15.664 7.68167 15.664 7.81253V9.2969H9.5312C9.44526 9.2969 9.37495 9.36722 9.37495 9.45315V10.5469C9.37495 10.6328 9.44526 10.7032 9.5312 10.7032H15.664V12.1875C15.664 12.3184 15.8164 12.3926 15.9179 12.3106L18.6894 10.1231C18.7081 10.1085 18.7232 10.0898 18.7336 10.0685C18.744 10.0471 18.7493 10.0237 18.7493 10C18.7493 9.97631 18.744 9.95291 18.7336 9.93159C18.7232 9.91027 18.7081 9.8916 18.6894 9.87698Z" fill="#00137F"/>
</svg>
