<svg width="39" height="40" viewBox="0 0 39 40" fill="none" xmlns="http://www.w3.org/2000/svg">
<rect y="0.8125" width="39" height="39" rx="6" fill="#F4D1FF"/>
<path fill-rule="evenodd" clip-rule="evenodd" d="M24.5281 11.6272C24.576 11.6646 26.1793 12.9121 26.1793 12.9121C26.762 13.2594 27.2172 13.8803 27.3897 14.6153C27.5612 15.3427 27.4366 16.093 27.037 16.7273C27.0343 16.7315 27.0317 16.7357 27.0224 16.7482L27.0152 16.7578C26.9504 16.8434 26.6684 17.2004 25.2452 18.9857C25.232 19.0091 25.217 19.031 25.2007 19.0523C25.1767 19.0837 25.1505 19.1126 25.1227 19.1389C25.0256 19.2612 24.9231 19.3898 24.8153 19.525L24.5968 19.7989C24.1461 20.3641 23.6115 21.0343 22.9773 21.8291L22.6518 22.2371C21.4274 23.7716 19.8593 25.7363 17.8504 28.2527C17.4106 28.8015 16.7512 29.1211 16.043 29.1297L12.5556 29.1738H12.5461C12.2135 29.1738 11.9241 28.9455 11.8465 28.6202L11.0616 25.2895C10.8996 24.5996 11.0606 23.8876 11.5024 23.3349L20.5299 12.0293C20.5338 12.0254 20.5366 12.0206 20.5405 12.0168C21.5304 10.8317 23.3206 10.6571 24.5281 11.6272ZM19.5234 15.5934L12.6246 24.234C12.4608 24.4393 12.4004 24.7042 12.4608 24.9585L13.1134 27.7268L16.0258 27.6904C16.3027 27.6875 16.5586 27.5637 16.7282 27.3526C17.6017 26.2583 18.6996 24.8829 19.8283 23.4686L20.2276 22.9683L20.6276 22.467C21.6862 21.1406 22.732 19.83 23.607 18.733L19.5234 15.5934ZM21.6473 12.9351L20.4214 14.4688L24.5046 17.6075C25.2906 16.6218 25.8076 15.9726 25.8554 15.9107C26.0126 15.6555 26.0739 15.2947 25.9915 14.9473C25.9071 14.5913 25.6858 14.2891 25.3666 14.0962C25.2986 14.0492 23.6838 12.794 23.634 12.7547C23.0264 12.2672 22.1399 12.3517 21.6473 12.9351Z" fill="#6B1687"/>
</svg>
