<svg width="39" height="39" viewBox="0 0 39 39" fill="none" xmlns="http://www.w3.org/2000/svg">
<rect width="39" height="39" rx="6" fill="#F4D1FF"/>
<path d="M28.4856 18.2359C28.9201 18.8043 28.9201 19.5715 28.4856 20.1389C27.117 21.9255 23.8335 25.6041 20 25.6041C16.1665 25.6041 12.883 21.9255 11.5144 20.1389C11.303 19.8668 11.1882 19.532 11.1882 19.1874C11.1882 18.8428 11.303 18.508 11.5144 18.2359C12.883 16.4493 16.1665 12.7708 20 12.7708C23.8335 12.7708 27.117 16.4493 28.4856 18.2359V18.2359Z" stroke="#6B1687" stroke-width="1.54" stroke-linecap="round" stroke-linejoin="round"/>
<path d="M20 21.9375C21.5188 21.9375 22.75 20.7063 22.75 19.1875C22.75 17.6687 21.5188 16.4375 20 16.4375C18.4812 16.4375 17.25 17.6687 17.25 19.1875C17.25 20.7063 18.4812 21.9375 20 21.9375Z" stroke="#6B1687" stroke-width="1.54" stroke-linecap="round" stroke-linejoin="round"/>
</svg>
