<svg width="30" height="30" viewBox="0 0 30 30" fill="none" xmlns="http://www.w3.org/2000/svg">
<path d="M5.5 10.5C6.4665 10.5 7.25 9.7165 7.25 8.75C7.25 7.7835 6.4665 7 5.5 7C4.5335 7 3.75 7.7835 3.75 8.75C3.75 9.7165 4.5335 10.5 5.5 10.5Z" fill="#A8A8A8"/>
<path d="M5.5 16.75C6.4665 16.75 7.25 15.9665 7.25 15C7.25 14.0335 6.4665 13.25 5.5 13.25C4.5335 13.25 3.75 14.0335 3.75 15C3.75 15.9665 4.5335 16.75 5.5 16.75Z" fill="#A8A8A8"/>
<path d="M5.5 23C6.4665 23 7.25 22.2165 7.25 21.25C7.25 20.2835 6.4665 19.5 5.5 19.5C4.5335 19.5 3.75 20.2835 3.75 21.25C3.75 22.2165 4.5335 23 5.5 23Z" fill="#A8A8A8"/>
<path d="M25.075 13.75H9.925C9.27607 13.75 8.75 14.2761 8.75 14.925V15.075C8.75 15.7239 9.27607 16.25 9.925 16.25H25.075C25.7239 16.25 26.25 15.7239 26.25 15.075V14.925C26.25 14.2761 25.7239 13.75 25.075 13.75Z" fill="#A8A8A8"/>
<path d="M25.075 20H9.925C9.27607 20 8.75 20.5261 8.75 21.175V21.325C8.75 21.9739 9.27607 22.5 9.925 22.5H25.075C25.7239 22.5 26.25 21.9739 26.25 21.325V21.175C26.25 20.5261 25.7239 20 25.075 20Z" fill="#A8A8A8"/>
<path d="M25.075 7.5H9.925C9.27607 7.5 8.75 8.02607 8.75 8.675V8.825C8.75 9.47393 9.27607 10 9.925 10H25.075C25.7239 10 26.25 9.47393 26.25 8.825V8.675C26.25 8.02607 25.7239 7.5 25.075 7.5Z" fill="#A8A8A8"/>
</svg>
