<svg width="57" height="57" viewBox="0 0 57 57" fill="none" xmlns="http://www.w3.org/2000/svg">
<path d="M23.9912 1.2994C25.308 1.1022 26.656 1 28.0278 1C31.8989 1 35.5799 1.81383 38.9091 3.27974M23.9912 1.2994L29.6073 7.14268M23.9912 1.2994C18.1525 2.17375 12.9245 4.91567 8.9348 8.89773M29.6073 7.14268L38.9091 3.27974M29.6073 7.14268V18.024M38.9091 3.27974C44.5522 5.76453 49.1845 10.1229 52.018 15.5669M52.018 15.5669C53.9587 19.2956 55.0556 23.5336 55.0556 28.0278C55.0556 28.4395 55.0464 28.8491 55.0281 29.2563M52.018 15.5669L48.5619 24.1667M48.5619 24.1667L55.0281 29.2563M48.5619 24.1667L37.8561 25.9217M55.0281 29.2563C54.7903 34.5719 53.0172 39.4879 50.1414 43.5716M35.75 53.9363C33.3032 54.6645 30.7111 55.0556 28.0278 55.0556C23.1771 55.0556 18.6249 53.7777 14.6894 51.5404M35.75 53.9363L39.2601 44.8763M35.75 53.9363C41.6385 52.1838 46.6859 48.4786 50.1414 43.5716M39.2601 44.8763L50.1414 43.5716M39.2601 44.8763L32.9419 35.9255M3.68512 39.7866C1.96462 36.2315 1 32.2423 1 28.0278C1 26.8987 1.06923 25.7859 1.20367 24.6932M3.68512 39.7866L14.6894 41.1907M3.68512 39.7866C6.07814 44.7314 9.93345 48.8366 14.6894 51.5404M14.6894 41.1907V51.5404M14.6894 41.1907L21.3586 34.1705M1.20367 24.6932L9.24874 18.375M1.20367 24.6932C1.95909 18.5535 4.77344 13.0511 8.9348 8.89773M9.24874 18.375L8.9348 8.89773M9.24874 18.375L20.3056 23.2891M20.3056 23.2891L29.6073 18.024M20.3056 23.2891L21.3586 34.1705M29.6073 18.024L37.8561 25.9217M37.8561 25.9217L32.9419 35.9255M32.9419 35.9255L21.3586 34.1705" stroke="#FF0A0A" stroke-width="2"/>
<path d="M23.9912 1.2994C25.308 1.1022 26.656 1 28.0278 1C31.8989 1 35.5799 1.81383 38.9091 3.27974M23.9912 1.2994L29.6073 7.14268M23.9912 1.2994C18.1525 2.17375 12.9245 4.91567 8.9348 8.89773M29.6073 7.14268L38.9091 3.27974M29.6073 7.14268V18.024M38.9091 3.27974C44.5522 5.76453 49.1845 10.1229 52.018 15.5669M52.018 15.5669C53.9587 19.2956 55.0556 23.5336 55.0556 28.0278C55.0556 28.4395 55.0464 28.8491 55.0281 29.2563M52.018 15.5669L48.5619 24.1667M48.5619 24.1667L55.0281 29.2563M48.5619 24.1667L37.8561 25.9217M55.0281 29.2563C54.7903 34.5719 53.0172 39.4879 50.1414 43.5716M35.75 53.9363C33.3032 54.6645 30.7111 55.0556 28.0278 55.0556C23.1771 55.0556 18.6249 53.7777 14.6894 51.5404M35.75 53.9363L39.2601 44.8763M35.75 53.9363C41.6385 52.1838 46.6859 48.4786 50.1414 43.5716M39.2601 44.8763L50.1414 43.5716M39.2601 44.8763L32.9419 35.9255M3.68512 39.7866C1.96462 36.2315 1 32.2423 1 28.0278C1 26.8987 1.06923 25.7859 1.20367 24.6932M3.68512 39.7866L14.6894 41.1907M3.68512 39.7866C6.07814 44.7314 9.93345 48.8366 14.6894 51.5404M14.6894 41.1907V51.5404M14.6894 41.1907L21.3586 34.1705M1.20367 24.6932L9.24874 18.375M1.20367 24.6932C1.95909 18.5535 4.77344 13.0511 8.9348 8.89773M9.24874 18.375L8.9348 8.89773M9.24874 18.375L20.3056 23.2891M20.3056 23.2891L29.6073 18.024M20.3056 23.2891L21.3586 34.1705M29.6073 18.024L37.8561 25.9217M37.8561 25.9217L32.9419 35.9255M32.9419 35.9255L21.3586 34.1705" stroke="url(#paint0_linear_1908_1507)" stroke-width="2"/>
<defs>
<linearGradient id="paint0_linear_1908_1507" x1="28.0278" y1="1" x2="28.0278" y2="55.0556" gradientUnits="userSpaceOnUse">
<stop stop-color="#008D56"/>
<stop offset="1" stop-color="#73D45F"/>
</linearGradient>
</defs>
</svg>
