<svg width="52" height="52" viewBox="0 0 52 52" fill="none" xmlns="http://www.w3.org/2000/svg">
<path d="M9.57083 36.5284L12.3778 27.0277M9.57083 36.5284H8.21359C7.53497 36.5284 6.17773 37.207 6.17773 39.9215H23.8218M9.57083 36.5284H23.8218M12.3778 27.0277H31.9653L29.3228 17.9259M12.3778 27.0277L15.067 17.9259M15.067 17.9259H29.3228M15.067 17.9259L17.3214 10.2956M29.3228 17.9259L27.1076 10.2956M17.3214 10.2956L18.3929 6.66916C18.6191 5.99054 19.343 4.6333 20.4287 4.6333H23.8218C24.2743 4.6333 25.3148 4.90475 25.8577 5.99054L27.1076 10.2956M17.3214 10.2956H27.1076" stroke="#D94343" stroke-width="2"/>
<path d="M9.57083 36.5284L12.3778 27.0277M9.57083 36.5284H8.21359C7.53497 36.5284 6.17773 37.207 6.17773 39.9215H23.8218M9.57083 36.5284H23.8218M12.3778 27.0277H31.9653L29.3228 17.9259M12.3778 27.0277L15.067 17.9259M15.067 17.9259H29.3228M15.067 17.9259L17.3214 10.2956M29.3228 17.9259L27.1076 10.2956M17.3214 10.2956L18.3929 6.66916C18.6191 5.99054 19.343 4.6333 20.4287 4.6333H23.8218C24.2743 4.6333 25.3148 4.90475 25.8577 5.99054L27.1076 10.2956M17.3214 10.2956H27.1076" stroke="url(#paint0_linear_1908_1522)" stroke-width="2"/>
<path d="M33.0581 27.8266C33.5871 27.7474 34.1286 27.7063 34.6797 27.7063C36.2348 27.7063 37.7136 28.0332 39.0511 28.6221M33.0581 27.8266L35.3142 30.174M33.0581 27.8266C30.7125 28.1778 28.6122 29.2793 27.0094 30.8791M35.3142 30.174L39.0511 28.6221M35.3142 30.174V34.5454M39.0511 28.6221C41.3181 29.6204 43.179 31.3712 44.3173 33.5583M44.3173 33.5583C45.0969 35.0562 45.5376 36.7588 45.5376 38.5642C45.5376 38.7296 45.5339 38.8942 45.5266 39.0578M44.3173 33.5583L42.9289 37.0131M42.9289 37.0131L45.5266 39.0578M42.9289 37.0131L38.628 37.7181M45.5266 39.0578C45.4311 41.1932 44.7187 43.1681 43.5634 44.8087M37.7819 48.9725C36.799 49.265 35.7577 49.4221 34.6797 49.4221C32.731 49.4221 30.9023 48.9088 29.3212 48.01M37.7819 48.9725L39.1921 45.3328M37.7819 48.9725C40.1475 48.2685 42.1752 46.78 43.5634 44.8087M39.1921 45.3328L43.5634 44.8087M39.1921 45.3328L36.6539 41.737M24.9005 43.2881C24.2093 41.8599 23.8218 40.2573 23.8218 38.5642C23.8218 38.1106 23.8496 37.6636 23.9036 37.2246M24.9005 43.2881L29.3212 43.8522M24.9005 43.2881C25.8618 45.2746 27.4106 46.9238 29.3212 48.01M29.3212 43.8522V48.01M29.3212 43.8522L32.0005 41.0319M23.9036 37.2246L27.1356 34.6864M23.9036 37.2246C24.2071 34.7581 25.3377 32.5476 27.0094 30.8791M27.1356 34.6864L27.0094 30.8791M27.1356 34.6864L31.5774 36.6606M31.5774 36.6606L35.3142 34.5454M31.5774 36.6606L32.0005 41.0319M35.3142 34.5454L38.628 37.7181M38.628 37.7181L36.6539 41.737M36.6539 41.737L32.0005 41.0319" stroke="black" stroke-width="2"/>
<path d="M33.0581 27.8266C33.5871 27.7474 34.1286 27.7063 34.6797 27.7063C36.2348 27.7063 37.7136 28.0332 39.0511 28.6221M33.0581 27.8266L35.3142 30.174M33.0581 27.8266C30.7125 28.1778 28.6122 29.2793 27.0094 30.8791M35.3142 30.174L39.0511 28.6221M35.3142 30.174V34.5454M39.0511 28.6221C41.3181 29.6204 43.179 31.3712 44.3173 33.5583M44.3173 33.5583C45.0969 35.0562 45.5376 36.7588 45.5376 38.5642C45.5376 38.7296 45.5339 38.8942 45.5266 39.0578M44.3173 33.5583L42.9289 37.0131M42.9289 37.0131L45.5266 39.0578M42.9289 37.0131L38.628 37.7181M45.5266 39.0578C45.4311 41.1932 44.7187 43.1681 43.5634 44.8087M37.7819 48.9725C36.799 49.265 35.7577 49.4221 34.6797 49.4221C32.731 49.4221 30.9023 48.9088 29.3212 48.01M37.7819 48.9725L39.1921 45.3328M37.7819 48.9725C40.1475 48.2685 42.1752 46.78 43.5634 44.8087M39.1921 45.3328L43.5634 44.8087M39.1921 45.3328L36.6539 41.737M24.9005 43.2881C24.2093 41.8599 23.8218 40.2573 23.8218 38.5642C23.8218 38.1106 23.8496 37.6636 23.9036 37.2246M24.9005 43.2881L29.3212 43.8522M24.9005 43.2881C25.8618 45.2746 27.4106 46.9238 29.3212 48.01M29.3212 43.8522V48.01M29.3212 43.8522L32.0005 41.0319M23.9036 37.2246L27.1356 34.6864M23.9036 37.2246C24.2071 34.7581 25.3377 32.5476 27.0094 30.8791M27.1356 34.6864L27.0094 30.8791M27.1356 34.6864L31.5774 36.6606M31.5774 36.6606L35.3142 34.5454M31.5774 36.6606L32.0005 41.0319M35.3142 34.5454L38.628 37.7181M38.628 37.7181L36.6539 41.737M36.6539 41.737L32.0005 41.0319" stroke="url(#paint1_linear_1908_1522)" stroke-width="2"/>
<defs>
<linearGradient id="paint0_linear_1908_1522" x1="19.0715" y1="4.6333" x2="19.0715" y2="39.9215" gradientUnits="userSpaceOnUse">
<stop stop-color="#FF6903"/>
<stop offset="1" stop-color="#FFB845"/>
</linearGradient>
<linearGradient id="paint1_linear_1908_1522" x1="34.6797" y1="27.7063" x2="34.6797" y2="49.4221" gradientUnits="userSpaceOnUse">
<stop stop-color="#FF6903"/>
<stop offset="1" stop-color="#FFB845"/>
</linearGradient>
</defs>
</svg>
