<svg width="53" height="52" viewBox="0 0 53 52" fill="none" xmlns="http://www.w3.org/2000/svg">
<path fill-rule="evenodd" clip-rule="evenodd" d="M35.6941 2.30249C36.6128 2.30249 37.3585 3.04814 37.3585 3.96689L37.3595 5.84836C40.5998 6.07051 43.2909 7.1804 45.1956 9.08904C47.275 11.1773 48.369 14.1799 48.358 17.7817V38.0275C48.358 45.4219 43.6621 50.0156 36.1057 50.0156H17.3357C9.77933 50.0156 5.0835 45.3575 5.0835 37.8588V17.7772C5.0835 10.8027 9.27126 6.32577 16.1011 5.84912L16.1025 3.96689C16.1025 3.04814 16.8482 2.30249 17.7669 2.30249C18.6857 2.30249 19.4313 3.04814 19.4313 3.96689L19.4306 5.80661H34.0286L34.0297 3.96689C34.0297 3.04814 34.7753 2.30249 35.6941 2.30249ZM45.0291 22.0623H8.4123V37.8588C8.4123 43.5533 11.5813 46.6868 17.3357 46.6868H36.1057C41.8601 46.6868 45.0292 43.611 45.0292 38.0275L45.0291 22.0623ZM36.5988 36.0262C37.5176 36.0262 38.2632 36.7718 38.2632 37.6906C38.2632 38.6093 37.5176 39.355 36.5988 39.355C35.6801 39.355 34.9256 38.6093 34.9256 37.6906C34.9256 36.7718 35.6601 36.0262 36.5789 36.0262H36.5988ZM26.7511 36.0262C27.6699 36.0262 28.4155 36.7718 28.4155 37.6906C28.4155 38.6093 27.6699 39.355 26.7511 39.355C25.8324 39.355 25.0778 38.6093 25.0778 37.6906C25.0778 36.7718 25.8124 36.0262 26.7312 36.0262H26.7511ZM16.8828 36.0262C17.8015 36.0262 18.5472 36.7718 18.5472 37.6906C18.5472 38.6093 17.8015 39.355 16.8828 39.355C15.964 39.355 15.2073 38.6093 15.2073 37.6906C15.2073 36.7718 15.9441 36.0262 16.8628 36.0262H16.8828ZM36.5988 27.4008C37.5176 27.4008 38.2632 28.1465 38.2632 29.0652C38.2632 29.984 37.5176 30.7296 36.5988 30.7296C35.6801 30.7296 34.9256 29.984 34.9256 29.0652C34.9256 28.1465 35.6601 27.4008 36.5789 27.4008H36.5988ZM26.7511 27.4008C27.6699 27.4008 28.4155 28.1465 28.4155 29.0652C28.4155 29.984 27.6699 30.7296 26.7511 30.7296C25.8324 30.7296 25.0778 29.984 25.0778 29.0652C25.0778 28.1465 25.8124 27.4008 26.7312 27.4008H26.7511ZM16.8828 27.4008C17.8015 27.4008 18.5472 28.1465 18.5472 29.0652C18.5472 29.984 17.8015 30.7296 16.8828 30.7296C15.964 30.7296 15.2073 29.984 15.2073 29.0652C15.2073 28.1465 15.9441 27.4008 16.8628 27.4008H16.8828ZM34.0286 9.13542H19.4306L19.4313 11.2703C19.4313 12.189 18.6857 12.9347 17.7669 12.9347C16.8482 12.9347 16.1025 12.189 16.1025 11.2703L16.1013 9.1858C11.1298 9.60343 8.4123 12.617 8.4123 17.7772V18.7335H45.0291L45.0292 17.7772C45.038 15.0365 44.3012 12.9061 42.8388 11.4414C41.555 10.1538 39.6783 9.38486 37.3604 9.18687L37.3585 11.2703C37.3585 12.189 36.6128 12.9347 35.6941 12.9347C34.7753 12.9347 34.0297 12.189 34.0297 11.2703L34.0286 9.13542Z" fill="#1245A8"/>
<path fill-rule="evenodd" clip-rule="evenodd" d="M35.6941 2.30249C36.6128 2.30249 37.3585 3.04814 37.3585 3.96689L37.3595 5.84836C40.5998 6.07051 43.2909 7.1804 45.1956 9.08904C47.275 11.1773 48.369 14.1799 48.358 17.7817V38.0275C48.358 45.4219 43.6621 50.0156 36.1057 50.0156H17.3357C9.77933 50.0156 5.0835 45.3575 5.0835 37.8588V17.7772C5.0835 10.8027 9.27126 6.32577 16.1011 5.84912L16.1025 3.96689C16.1025 3.04814 16.8482 2.30249 17.7669 2.30249C18.6857 2.30249 19.4313 3.04814 19.4313 3.96689L19.4306 5.80661H34.0286L34.0297 3.96689C34.0297 3.04814 34.7753 2.30249 35.6941 2.30249ZM45.0291 22.0623H8.4123V37.8588C8.4123 43.5533 11.5813 46.6868 17.3357 46.6868H36.1057C41.8601 46.6868 45.0292 43.611 45.0292 38.0275L45.0291 22.0623ZM36.5988 36.0262C37.5176 36.0262 38.2632 36.7718 38.2632 37.6906C38.2632 38.6093 37.5176 39.355 36.5988 39.355C35.6801 39.355 34.9256 38.6093 34.9256 37.6906C34.9256 36.7718 35.6601 36.0262 36.5789 36.0262H36.5988ZM26.7511 36.0262C27.6699 36.0262 28.4155 36.7718 28.4155 37.6906C28.4155 38.6093 27.6699 39.355 26.7511 39.355C25.8324 39.355 25.0778 38.6093 25.0778 37.6906C25.0778 36.7718 25.8124 36.0262 26.7312 36.0262H26.7511ZM16.8828 36.0262C17.8015 36.0262 18.5472 36.7718 18.5472 37.6906C18.5472 38.6093 17.8015 39.355 16.8828 39.355C15.964 39.355 15.2073 38.6093 15.2073 37.6906C15.2073 36.7718 15.9441 36.0262 16.8628 36.0262H16.8828ZM36.5988 27.4008C37.5176 27.4008 38.2632 28.1465 38.2632 29.0652C38.2632 29.984 37.5176 30.7296 36.5988 30.7296C35.6801 30.7296 34.9256 29.984 34.9256 29.0652C34.9256 28.1465 35.6601 27.4008 36.5789 27.4008H36.5988ZM26.7511 27.4008C27.6699 27.4008 28.4155 28.1465 28.4155 29.0652C28.4155 29.984 27.6699 30.7296 26.7511 30.7296C25.8324 30.7296 25.0778 29.984 25.0778 29.0652C25.0778 28.1465 25.8124 27.4008 26.7312 27.4008H26.7511ZM16.8828 27.4008C17.8015 27.4008 18.5472 28.1465 18.5472 29.0652C18.5472 29.984 17.8015 30.7296 16.8828 30.7296C15.964 30.7296 15.2073 29.984 15.2073 29.0652C15.2073 28.1465 15.9441 27.4008 16.8628 27.4008H16.8828ZM34.0286 9.13542H19.4306L19.4313 11.2703C19.4313 12.189 18.6857 12.9347 17.7669 12.9347C16.8482 12.9347 16.1025 12.189 16.1025 11.2703L16.1013 9.1858C11.1298 9.60343 8.4123 12.617 8.4123 17.7772V18.7335H45.0291L45.0292 17.7772C45.038 15.0365 44.3012 12.9061 42.8388 11.4414C41.555 10.1538 39.6783 9.38486 37.3604 9.18687L37.3585 11.2703C37.3585 12.189 36.6128 12.9347 35.6941 12.9347C34.7753 12.9347 34.0297 12.189 34.0297 11.2703L34.0286 9.13542Z" fill="url(#paint0_linear_1908_1534)"/>
<path fill-rule="evenodd" clip-rule="evenodd" d="M35.6941 2.30249C36.6128 2.30249 37.3585 3.04814 37.3585 3.96689L37.3595 5.84836C40.5998 6.07051 43.2909 7.1804 45.1956 9.08904C47.275 11.1773 48.369 14.1799 48.358 17.7817V38.0275C48.358 45.4219 43.6621 50.0156 36.1057 50.0156H17.3357C9.77933 50.0156 5.0835 45.3575 5.0835 37.8588V17.7772C5.0835 10.8027 9.27126 6.32577 16.1011 5.84912L16.1025 3.96689C16.1025 3.04814 16.8482 2.30249 17.7669 2.30249C18.6857 2.30249 19.4313 3.04814 19.4313 3.96689L19.4306 5.80661H34.0286L34.0297 3.96689C34.0297 3.04814 34.7753 2.30249 35.6941 2.30249ZM45.0291 22.0623H8.4123V37.8588C8.4123 43.5533 11.5813 46.6868 17.3357 46.6868H36.1057C41.8601 46.6868 45.0292 43.611 45.0292 38.0275L45.0291 22.0623ZM36.5988 36.0262C37.5176 36.0262 38.2632 36.7718 38.2632 37.6906C38.2632 38.6093 37.5176 39.355 36.5988 39.355C35.6801 39.355 34.9256 38.6093 34.9256 37.6906C34.9256 36.7718 35.6601 36.0262 36.5789 36.0262H36.5988ZM26.7511 36.0262C27.6699 36.0262 28.4155 36.7718 28.4155 37.6906C28.4155 38.6093 27.6699 39.355 26.7511 39.355C25.8324 39.355 25.0778 38.6093 25.0778 37.6906C25.0778 36.7718 25.8124 36.0262 26.7312 36.0262H26.7511ZM16.8828 36.0262C17.8015 36.0262 18.5472 36.7718 18.5472 37.6906C18.5472 38.6093 17.8015 39.355 16.8828 39.355C15.964 39.355 15.2073 38.6093 15.2073 37.6906C15.2073 36.7718 15.9441 36.0262 16.8628 36.0262H16.8828ZM36.5988 27.4008C37.5176 27.4008 38.2632 28.1465 38.2632 29.0652C38.2632 29.984 37.5176 30.7296 36.5988 30.7296C35.6801 30.7296 34.9256 29.984 34.9256 29.0652C34.9256 28.1465 35.6601 27.4008 36.5789 27.4008H36.5988ZM26.7511 27.4008C27.6699 27.4008 28.4155 28.1465 28.4155 29.0652C28.4155 29.984 27.6699 30.7296 26.7511 30.7296C25.8324 30.7296 25.0778 29.984 25.0778 29.0652C25.0778 28.1465 25.8124 27.4008 26.7312 27.4008H26.7511ZM16.8828 27.4008C17.8015 27.4008 18.5472 28.1465 18.5472 29.0652C18.5472 29.984 17.8015 30.7296 16.8828 30.7296C15.964 30.7296 15.2073 29.984 15.2073 29.0652C15.2073 28.1465 15.9441 27.4008 16.8628 27.4008H16.8828ZM34.0286 9.13542H19.4306L19.4313 11.2703C19.4313 12.189 18.6857 12.9347 17.7669 12.9347C16.8482 12.9347 16.1025 12.189 16.1025 11.2703L16.1013 9.1858C11.1298 9.60343 8.4123 12.617 8.4123 17.7772V18.7335H45.0291L45.0292 17.7772C45.038 15.0365 44.3012 12.9061 42.8388 11.4414C41.555 10.1538 39.6783 9.38486 37.3604 9.18687L37.3585 11.2703C37.3585 12.189 36.6128 12.9347 35.6941 12.9347C34.7753 12.9347 34.0297 12.189 34.0297 11.2703L34.0286 9.13542Z" stroke="#1245A8" stroke-width="0.5"/>
<path fill-rule="evenodd" clip-rule="evenodd" d="M35.6941 2.30249C36.6128 2.30249 37.3585 3.04814 37.3585 3.96689L37.3595 5.84836C40.5998 6.07051 43.2909 7.1804 45.1956 9.08904C47.275 11.1773 48.369 14.1799 48.358 17.7817V38.0275C48.358 45.4219 43.6621 50.0156 36.1057 50.0156H17.3357C9.77933 50.0156 5.0835 45.3575 5.0835 37.8588V17.7772C5.0835 10.8027 9.27126 6.32577 16.1011 5.84912L16.1025 3.96689C16.1025 3.04814 16.8482 2.30249 17.7669 2.30249C18.6857 2.30249 19.4313 3.04814 19.4313 3.96689L19.4306 5.80661H34.0286L34.0297 3.96689C34.0297 3.04814 34.7753 2.30249 35.6941 2.30249ZM45.0291 22.0623H8.4123V37.8588C8.4123 43.5533 11.5813 46.6868 17.3357 46.6868H36.1057C41.8601 46.6868 45.0292 43.611 45.0292 38.0275L45.0291 22.0623ZM36.5988 36.0262C37.5176 36.0262 38.2632 36.7718 38.2632 37.6906C38.2632 38.6093 37.5176 39.355 36.5988 39.355C35.6801 39.355 34.9256 38.6093 34.9256 37.6906C34.9256 36.7718 35.6601 36.0262 36.5789 36.0262H36.5988ZM26.7511 36.0262C27.6699 36.0262 28.4155 36.7718 28.4155 37.6906C28.4155 38.6093 27.6699 39.355 26.7511 39.355C25.8324 39.355 25.0778 38.6093 25.0778 37.6906C25.0778 36.7718 25.8124 36.0262 26.7312 36.0262H26.7511ZM16.8828 36.0262C17.8015 36.0262 18.5472 36.7718 18.5472 37.6906C18.5472 38.6093 17.8015 39.355 16.8828 39.355C15.964 39.355 15.2073 38.6093 15.2073 37.6906C15.2073 36.7718 15.9441 36.0262 16.8628 36.0262H16.8828ZM36.5988 27.4008C37.5176 27.4008 38.2632 28.1465 38.2632 29.0652C38.2632 29.984 37.5176 30.7296 36.5988 30.7296C35.6801 30.7296 34.9256 29.984 34.9256 29.0652C34.9256 28.1465 35.6601 27.4008 36.5789 27.4008H36.5988ZM26.7511 27.4008C27.6699 27.4008 28.4155 28.1465 28.4155 29.0652C28.4155 29.984 27.6699 30.7296 26.7511 30.7296C25.8324 30.7296 25.0778 29.984 25.0778 29.0652C25.0778 28.1465 25.8124 27.4008 26.7312 27.4008H26.7511ZM16.8828 27.4008C17.8015 27.4008 18.5472 28.1465 18.5472 29.0652C18.5472 29.984 17.8015 30.7296 16.8828 30.7296C15.964 30.7296 15.2073 29.984 15.2073 29.0652C15.2073 28.1465 15.9441 27.4008 16.8628 27.4008H16.8828ZM34.0286 9.13542H19.4306L19.4313 11.2703C19.4313 12.189 18.6857 12.9347 17.7669 12.9347C16.8482 12.9347 16.1025 12.189 16.1025 11.2703L16.1013 9.1858C11.1298 9.60343 8.4123 12.617 8.4123 17.7772V18.7335H45.0291L45.0292 17.7772C45.038 15.0365 44.3012 12.9061 42.8388 11.4414C41.555 10.1538 39.6783 9.38486 37.3604 9.18687L37.3585 11.2703C37.3585 12.189 36.6128 12.9347 35.6941 12.9347C34.7753 12.9347 34.0297 12.189 34.0297 11.2703L34.0286 9.13542Z" stroke="url(#paint1_linear_1908_1534)" stroke-width="0.5"/>
<defs>
<linearGradient id="paint0_linear_1908_1534" x1="26.7208" y1="2.30249" x2="26.7208" y2="50.0156" gradientUnits="userSpaceOnUse">
<stop stop-color="#1245A8"/>
<stop offset="1" stop-color="#3C91F4"/>
</linearGradient>
<linearGradient id="paint1_linear_1908_1534" x1="26.7208" y1="2.30249" x2="26.7208" y2="50.0156" gradientUnits="userSpaceOnUse">
<stop stop-color="#1245A8"/>
<stop offset="1" stop-color="#3C91F4"/>
</linearGradient>
</defs>
</svg>
