<svg width="39" height="39" viewBox="0 0 39 39" fill="none" xmlns="http://www.w3.org/2000/svg">
<rect width="39" height="39" rx="6" fill="#89CEF7"/>
<path d="M28.4856 18.2362C28.9201 18.8045 28.9201 19.5717 28.4856 20.1392C27.117 21.9257 23.8335 25.6043 20 25.6043C16.1665 25.6043 12.883 21.9257 11.5144 20.1392C11.303 19.867 11.1882 19.5323 11.1882 19.1877C11.1882 18.8431 11.303 18.5083 11.5144 18.2362C12.883 16.4496 16.1665 12.771 20 12.771C23.8335 12.771 27.117 16.4496 28.4856 18.2362V18.2362Z" stroke="#00137F" stroke-width="1.54" stroke-linecap="round" stroke-linejoin="round"/>
<path d="M20 21.9375C21.5188 21.9375 22.75 20.7063 22.75 19.1875C22.75 17.6687 21.5188 16.4375 20 16.4375C18.4812 16.4375 17.25 17.6687 17.25 19.1875C17.25 20.7063 18.4812 21.9375 20 21.9375Z" stroke="#00137F" stroke-width="1.54" stroke-linecap="round" stroke-linejoin="round"/>
</svg>
