<svg width="19" height="20" viewBox="0 0 19 20" fill="none" xmlns="http://www.w3.org/2000/svg">
<path d="M8.23052 18.4058C8.64466 18.4679 9.06858 18.5 9.5 18.5C10.7174 18.5 11.8751 18.2441 12.9221 17.783M8.23052 18.4058L9.99675 16.5682M8.23052 18.4058C6.3943 18.1309 4.75016 17.2686 3.49542 16.0162M9.99675 16.5682L12.9221 17.783M9.99675 16.5682V13.1461M12.9221 17.783C14.6968 17.0016 16.1536 15.6309 17.0447 13.9188M17.0447 13.9188C17.655 12.7462 18 11.4134 18 10C18 9.87052 17.9971 9.74171 17.9914 9.61364M17.0447 13.9188L15.9578 11.2143M15.9578 11.2143L17.9914 9.61364M15.9578 11.2143L12.5909 10.6623M17.9914 9.61364C17.9166 7.94194 17.3589 6.39589 16.4545 5.1116M11.9286 1.85199C11.1591 1.62298 10.3439 1.5 9.5 1.5C7.97451 1.5 6.54288 1.90186 5.30519 2.6055M11.9286 1.85199L13.0325 4.7013M11.9286 1.85199C13.7804 2.40314 15.3678 3.5684 16.4545 5.1116M13.0325 4.7013L16.4545 5.1116M13.0325 4.7013L11.0455 7.51623M1.84445 6.30195C1.30336 7.42001 1 8.67458 1 10C1 10.3551 1.02177 10.7051 1.06405 11.0487M1.84445 6.30195L5.30519 5.86039M1.84445 6.30195C2.59703 4.74685 3.80949 3.45582 5.30519 2.6055M5.30519 5.86039V2.6055M5.30519 5.86039L7.4026 8.06818M1.06405 11.0487L3.59416 13.0357M1.06405 11.0487C1.30162 12.9796 2.18671 14.71 3.49542 16.0162M3.59416 13.0357L3.49542 16.0162M3.59416 13.0357L7.07143 11.4903M7.07143 11.4903L9.99675 13.1461M7.07143 11.4903L7.4026 8.06818M9.99675 13.1461L12.5909 10.6623M12.5909 10.6623L11.0455 7.51623M11.0455 7.51623L7.4026 8.06818" stroke="#FF0A0A" stroke-width="1.5"/>
<path d="M8.23052 18.4058C8.64466 18.4679 9.06858 18.5 9.5 18.5C10.7174 18.5 11.8751 18.2441 12.9221 17.783M8.23052 18.4058L9.99675 16.5682M8.23052 18.4058C6.3943 18.1309 4.75016 17.2686 3.49542 16.0162M9.99675 16.5682L12.9221 17.783M9.99675 16.5682V13.1461M12.9221 17.783C14.6968 17.0016 16.1536 15.6309 17.0447 13.9188M17.0447 13.9188C17.655 12.7462 18 11.4134 18 10C18 9.87052 17.9971 9.74171 17.9914 9.61364M17.0447 13.9188L15.9578 11.2143M15.9578 11.2143L17.9914 9.61364M15.9578 11.2143L12.5909 10.6623M17.9914 9.61364C17.9166 7.94194 17.3589 6.39589 16.4545 5.1116M11.9286 1.85199C11.1591 1.62298 10.3439 1.5 9.5 1.5C7.97451 1.5 6.54288 1.90186 5.30519 2.6055M11.9286 1.85199L13.0325 4.7013M11.9286 1.85199C13.7804 2.40314 15.3678 3.5684 16.4545 5.1116M13.0325 4.7013L16.4545 5.1116M13.0325 4.7013L11.0455 7.51623M1.84445 6.30195C1.30336 7.42001 1 8.67458 1 10C1 10.3551 1.02177 10.7051 1.06405 11.0487M1.84445 6.30195L5.30519 5.86039M1.84445 6.30195C2.59703 4.74685 3.80949 3.45582 5.30519 2.6055M5.30519 5.86039V2.6055M5.30519 5.86039L7.4026 8.06818M1.06405 11.0487L3.59416 13.0357M1.06405 11.0487C1.30162 12.9796 2.18671 14.71 3.49542 16.0162M3.59416 13.0357L3.49542 16.0162M3.59416 13.0357L7.07143 11.4903M7.07143 11.4903L9.99675 13.1461M7.07143 11.4903L7.4026 8.06818M9.99675 13.1461L12.5909 10.6623M12.5909 10.6623L11.0455 7.51623M11.0455 7.51623L7.4026 8.06818" stroke="url(#paint0_linear_2257_623)" stroke-width="1.5"/>
<defs>
<linearGradient id="paint0_linear_2257_623" x1="9.5" y1="18.5" x2="9.5" y2="1.5" gradientUnits="userSpaceOnUse">
<stop stop-color="#008D56"/>
<stop offset="1" stop-color="#73D45F"/>
</linearGradient>
</defs>
</svg>
