<svg width="74" height="74" viewBox="0 0 74 74" fill="none" xmlns="http://www.w3.org/2000/svg">
<circle cx="37" cy="37" r="37" fill="#F4D1FF"/>
<path d="M33.2786 41.2789L31.2331 39.9152C30.1422 39.1879 29.4149 39.6121 29.1876 39.9152C28.6421 41.0061 29.4149 41.7334 29.8694 41.9607L33.2786 44.0062C34.3696 44.5517 35.5514 43.7789 36.006 43.3244L39.4152 38.5515L42.1425 41.9607L42.8244 47.4154C42.8244 48.5063 43.7335 48.7791 44.188 48.7791C45.279 48.2336 45.5517 47.6427 45.5517 47.4154L44.8699 41.2788L42.1425 37.1878V31.7331L44.8699 28.3239C45.4153 27.233 45.0972 26.5057 44.8699 26.2784C43.7789 25.733 43.0516 26.5057 42.8244 26.9603L40.7788 29.6876C39.1424 28.5967 36.9151 29.2331 36.006 29.6876L32.5968 34.4605C32.0513 35.5514 32.3695 36.2787 32.5968 36.506C33.1423 37.0515 34.1878 36.7333 34.6423 36.506L36.6878 33.7787V36.506L33.2786 41.2789Z" stroke="#6B1687" stroke-width="1.5"/>
<circle cx="38.5457" cy="24.7273" r="1.97735" stroke="#6B1687" stroke-width="1.5"/>
<circle cx="37.1819" cy="49.2737" r="2.72735" fill="#6B1687"/>
</svg>
