<svg width="74" height="74" viewBox="0 0 74 74" fill="none" xmlns="http://www.w3.org/2000/svg">
<circle cx="37" cy="37" r="37" fill="#F4D1FF"/>
<g clip-path="url(#clip0_1416_208)">
<path fill-rule="evenodd" clip-rule="evenodd" d="M45.6046 43.2896C45.6046 48.2336 38.4043 48.8051 32.9898 48.8051L32.6023 48.8048C29.1526 48.7969 20.3718 48.5919 20.3718 43.2596C20.3718 38.4165 27.2827 37.7693 32.656 37.7449L33.3772 37.7445C36.8267 37.7523 45.6046 37.9574 45.6046 43.2896ZM32.9898 39.9941C26.2021 39.9941 22.7613 41.0921 22.7613 43.2596C22.7613 45.4466 26.2021 46.5551 32.9898 46.5551C39.7759 46.5551 43.2151 45.4571 43.2151 43.2896C43.2151 41.1026 39.7759 39.9941 32.9898 39.9941ZM32.9898 18.9995C37.654 18.9995 41.4469 22.5725 41.4469 26.9645C41.4469 31.3565 37.654 34.928 32.9898 34.928H32.9388C28.2841 34.9145 24.5136 31.34 24.5294 26.96C24.5294 22.5725 28.324 18.9995 32.9898 18.9995ZM32.9898 21.1415C29.5792 21.1415 26.8042 23.753 26.8042 26.9645C26.7931 30.1655 29.5474 32.7755 32.9436 32.7875L32.9898 33.8585V32.7875C36.3988 32.7875 39.1721 30.1745 39.1721 26.9645C39.1721 23.753 36.3988 21.1415 32.9898 21.1415Z" fill="#6B1687"/>
<circle cx="47" cy="45" r="8.9" fill="#F4D1FF" stroke="#6B1687" stroke-width="2.2"/>
<path fill-rule="evenodd" clip-rule="evenodd" d="M51.7451 42.2463C52.085 42.5747 52.085 43.1059 51.7451 43.4343L46.2389 48.7534C46.0696 48.9182 45.8468 49 45.624 49C45.4025 49 45.1785 48.9182 45.0092 48.7534L42.2549 46.0939C41.915 45.7655 41.915 45.2342 42.2549 44.9059C42.5949 44.5775 43.1448 44.5775 43.4847 44.9059L45.624 46.9703L50.5153 42.2463C50.8552 41.9179 51.4051 41.9179 51.7451 42.2463Z" fill="#6B1687"/>
</g>
<defs>
<clipPath id="clip0_1416_208">
<rect width="38.2314" height="36" fill="white" transform="translate(20 19)"/>
</clipPath>
</defs>
</svg>
