<svg width="74" height="74" viewBox="0 0 74 74" fill="none" xmlns="http://www.w3.org/2000/svg">
<circle cx="37" cy="37" r="37" fill="#F4D1FF"/>
<path fill-rule="evenodd" clip-rule="evenodd" d="M36.8015 41.4101L37.0095 41.4101L37.4747 41.4117C41.0306 41.4351 49.1567 41.7943 49.1567 47.3022C49.1567 52.7738 41.3139 53.1307 37.5302 53.154L36.1283 53.154C32.5722 53.1306 24.4445 52.7718 24.4445 47.2709C24.4445 41.7923 32.5722 41.435 36.1283 41.4117L36.5936 41.4101C36.6657 41.4101 36.7351 41.4101 36.8015 41.4101ZM36.8015 44.1729C32.4253 44.1729 27.2073 44.7107 27.2073 47.2709C27.2073 49.7731 32.1138 50.3581 36.4016 50.3913L36.8015 50.3928C41.1778 50.3928 46.3939 49.8568 46.3939 47.3022C46.3939 44.7162 41.1778 44.1729 36.8015 44.1729ZM51.4509 40.6627C55.9137 41.3312 56.8512 43.4273 56.8512 45.0684C56.8512 46.0703 56.4571 47.8993 53.8232 48.9031C53.6611 48.9639 53.4954 48.9934 53.3315 48.9934C52.7752 48.9934 52.2503 48.6545 52.0403 48.1037C51.7677 47.3909 52.1269 46.5916 52.8397 46.3208C54.0885 45.8456 54.0885 45.3207 54.0885 45.0684C54.0885 44.2616 53.0625 43.698 51.0402 43.396C50.2869 43.2818 49.7656 42.58 49.878 41.823C49.9903 41.0679 50.6902 40.565 51.4509 40.6627ZM23.7233 41.823C23.8356 42.58 23.3144 43.2818 22.5611 43.396C20.5387 43.698 19.5128 44.2616 19.5128 45.0684C19.5128 45.3207 19.5128 45.8438 20.7634 46.3208C21.4762 46.5916 21.8354 47.3909 21.5628 48.1037C21.3528 48.6545 20.8279 48.9934 20.2716 48.9934C20.1077 48.9934 19.9419 48.9639 19.7799 48.9031C17.1442 47.8975 16.75 46.0685 16.75 45.0684C16.75 43.4291 17.6875 41.3312 22.1522 40.6627C22.9128 40.5669 23.6091 41.0679 23.7233 41.823ZM36.8015 22.229C41.443 22.229 45.217 26.0048 45.217 30.6444C45.217 35.2841 41.443 39.0599 36.8015 39.0599H36.7518C34.5047 39.0525 32.3995 38.1721 30.8229 36.5807C29.2426 34.9912 28.3787 32.8804 28.3879 30.6389C28.3879 26.0048 32.1619 22.229 36.8015 22.229ZM36.8015 24.9918C33.6851 24.9918 31.1507 27.528 31.1507 30.6444C31.1452 32.1548 31.7235 33.5675 32.7826 34.6339C33.8417 35.7003 35.2525 36.2916 36.7555 36.2971L36.8015 37.6785V36.2971C39.918 36.2971 42.4542 33.7627 42.4542 30.6444C42.4542 27.528 39.918 24.9918 36.8015 24.9918ZM48.2008 24.0331C51.4388 24.5654 53.7908 27.3355 53.7908 30.6196C53.7834 33.9257 51.3135 36.7622 48.0442 37.2208C47.9798 37.23 47.9153 37.2337 47.8527 37.2337C47.1749 37.2337 46.5836 36.7345 46.486 36.0438C46.381 35.2868 46.906 34.5888 47.663 34.4838C49.5785 34.2149 51.0243 32.5535 51.028 30.6159C51.028 28.6948 49.6503 27.0703 47.7514 26.759C46.9999 26.6356 46.4897 25.9247 46.6131 25.1714C46.7383 24.418 47.4438 23.9134 48.2008 24.0331ZM26.99 25.1714C27.1134 25.9247 26.6032 26.6356 25.8517 26.759C23.9528 27.0703 22.5751 28.6948 22.5751 30.6196C22.5787 32.5535 24.0246 34.2167 25.9383 34.4838C26.6953 34.5888 27.2202 35.2868 27.1152 36.0438C27.0176 36.7345 26.4264 37.2337 25.7486 37.2337C25.6859 37.2337 25.6215 37.23 25.557 37.2208C22.2877 36.7622 19.8196 33.9257 19.8123 30.6233C19.8123 27.3355 22.1643 24.5654 25.4023 24.0331C26.1777 23.9115 26.8647 24.4217 26.99 25.1714Z" fill="#6B1687"/>
</svg>
