<svg width="15" height="18" viewBox="0 0 15 18" fill="none" xmlns="http://www.w3.org/2000/svg">
<path d="M1 13V15.5C1 16.0523 1.44772 16.5 2 16.5H12.5C13.0523 16.5 13.5 16.0523 13.5 15.5V13M1 13V9C1 8.44772 1.44772 8 2 8H7.5M1 13C1.41884 13 2.17976 12.8026 2.88599 12.16C3.49763 11.6034 4.67481 11.4895 5.30027 12.0306C5.91949 12.5662 6.68372 13 7.5 13C7.94459 13 8.8191 12.7776 9.70829 12.0363C10.3435 11.5067 11.4953 11.5971 12.0521 12.2086C12.4623 12.6591 12.9573 13 13.5 13M13.5 13V9C13.5 8.44772 13.0523 8 12.5 8H10.5H7.5M7.5 6V8" stroke="#00137F" stroke-width="1.5"/>
<path d="M5.99999 2.5C5.59999 4.1 6.83332 4.5 7.49999 4.5C9.09997 4.5 9.16666 3.16667 9 2.5L7.49999 0L5.99999 2.5Z" fill="#00137F"/>
</svg>
