<svg width="74" height="74" viewBox="0 0 74 74" fill="none" xmlns="http://www.w3.org/2000/svg">
<circle cx="37" cy="37" r="37" fill="#F4D1FF"/>
<path fill-rule="evenodd" clip-rule="evenodd" d="M49.6046 46.2896C49.6046 51.2336 42.4043 51.8051 36.9898 51.8051L36.6023 51.8048C33.1526 51.7969 24.3718 51.5919 24.3718 46.2596C24.3718 41.4165 31.2827 40.7693 36.656 40.7449L37.3772 40.7445C40.8267 40.7523 49.6046 40.9574 49.6046 46.2896ZM36.9898 42.9941C30.2021 42.9941 26.7613 44.0921 26.7613 46.2596C26.7613 48.4466 30.2021 49.5551 36.9898 49.5551C43.7759 49.5551 47.2151 48.4571 47.2151 46.2896C47.2151 44.1026 43.7759 42.9941 36.9898 42.9941ZM36.9898 21.9995C41.654 21.9995 45.4469 25.5725 45.4469 29.9645C45.4469 34.3565 41.654 37.928 36.9898 37.928H36.9388C32.2841 37.9145 28.5136 34.34 28.5294 29.96C28.5294 25.5725 32.324 21.9995 36.9898 21.9995ZM36.9898 24.1415C33.5792 24.1415 30.8042 26.753 30.8042 29.9645C30.7931 33.1655 33.5474 35.7755 36.9436 35.7875L36.9898 36.8585V35.7875C40.3988 35.7875 43.1721 33.1745 43.1721 29.9645C43.1721 26.753 40.3988 24.1415 36.9898 24.1415Z" fill="#6B1687"/>
</svg>
