<svg width="15" height="18" viewBox="0 0 15 18" fill="none" xmlns="http://www.w3.org/2000/svg">
<path fill-rule="evenodd" clip-rule="evenodd" d="M7.5 0.181885C11.6355 0.181885 15 3.57188 15 7.73916C15 12.8619 9.13091 17.9092 7.5 17.9092C5.86909 17.9092 0 12.8619 0 7.73916C0 3.57188 3.36455 0.181885 7.5 0.181885ZM7.5 1.54552C4.11636 1.54552 1.36364 4.32461 1.36364 7.73916C1.36364 12.0837 6.47636 16.3164 7.5 16.5419C8.52364 16.3155 13.6364 12.0828 13.6364 7.73916C13.6364 4.32461 10.8836 1.54552 7.5 1.54552ZM7.50091 4.72734C9.13 4.72734 10.4555 6.05279 10.4555 7.68279C10.4555 9.31188 9.13 10.6364 7.50091 10.6364C5.87182 10.6364 4.54636 9.31188 4.54636 7.68279C4.54636 6.05279 5.87182 4.72734 7.50091 4.72734ZM7.50091 6.09098C6.62364 6.09098 5.91 6.80461 5.91 7.68279C5.91 8.56007 6.62364 9.27279 7.50091 9.27279C8.37818 9.27279 9.09182 8.56007 9.09182 7.68279C9.09182 6.80461 8.37818 6.09098 7.50091 6.09098Z" fill="#6B1687"/>
</svg>
