<svg width="22" height="22" viewBox="0 0 22 22" fill="none" xmlns="http://www.w3.org/2000/svg">
<path d="M10.9859 1.83331C13.799 1.83331 16.0624 4.04687 16.0624 6.77965V8.18521C17.6412 8.67802 18.7916 10.1073 18.7916 11.8143V16.3398C18.7916 18.4532 17.0395 20.1666 14.8795 20.1666H7.12132C4.96033 20.1666 3.20825 18.4532 3.20825 16.3398V11.8143C3.20825 10.1073 4.35954 8.67802 5.93743 8.18521V6.77965C5.94675 4.04687 8.21019 1.83331 10.9859 1.83331ZM10.9953 12.2689C10.5482 12.2689 10.1849 12.6242 10.1849 13.0614V15.0837C10.1849 15.53 10.5482 15.8853 10.9953 15.8853C11.4517 15.8853 11.8149 15.53 11.8149 15.0837V13.0614C11.8149 12.6242 11.4517 12.2689 10.9953 12.2689ZM11.0046 3.42744C9.11371 3.42744 7.5768 4.92136 7.56749 6.76143V7.98754H14.4323V6.77965C14.4323 4.93047 12.8954 3.42744 11.0046 3.42744Z" fill="#6B1687"/>
</svg>
