<svg width="18" height="17" viewBox="0 0 18 17" fill="none" xmlns="http://www.w3.org/2000/svg">
<path fill-rule="evenodd" clip-rule="evenodd" d="M13.1882 0.583496C15.8245 0.583496 17.8123 2.73445 17.8123 5.58683V11.024C17.8123 12.4838 17.2962 13.8027 16.358 14.7385C15.5165 15.5769 14.4248 16.021 13.2009 16.021H5.40059C4.17905 16.021 3.08813 15.5777 2.2458 14.7385C1.30767 13.8027 0.791504 12.4838 0.791504 11.024V5.58683C0.791504 2.73445 2.77938 0.583496 5.41563 0.583496H13.1882ZM13.1882 1.771H5.41563C3.42459 1.771 1.979 3.3757 1.979 5.58683V11.024C1.979 12.1664 2.37167 13.1868 3.08417 13.897C3.6985 14.5105 4.50046 14.8335 5.40296 14.8335H13.1882C13.1898 14.8319 13.1961 14.8335 13.2009 14.8335C14.1042 14.8335 14.9053 14.5105 15.5197 13.897C16.233 13.1868 16.6248 12.1664 16.6248 11.024V5.58683C16.6248 3.3757 15.1793 1.771 13.1882 1.771ZM14.4359 5.43546C14.6425 5.68959 14.6037 6.06325 14.3496 6.27067L10.8314 9.13017C10.3865 9.48325 9.8545 9.6598 9.3233 9.6598C8.79367 9.6598 8.26563 9.48484 7.82388 9.13492L4.27325 6.27225C4.01755 6.06642 3.97796 5.69196 4.183 5.43705C4.38963 5.18292 4.7633 5.14255 5.01821 5.34759L8.56567 8.20709C9.01138 8.56017 9.63917 8.56017 10.088 8.20392L13.5999 5.34917C13.8548 5.14096 14.2285 5.18055 14.4359 5.43546Z" fill="#00137F"/>
</svg>
