<svg width="19" height="19" viewBox="0 0 19 19" fill="none" xmlns="http://www.w3.org/2000/svg">
<path fill-rule="evenodd" clip-rule="evenodd" d="M13.1882 1.5835C15.8245 1.5835 17.8123 3.73445 17.8123 6.58683V12.024C17.8123 13.4838 17.2962 14.8027 16.358 15.7385C15.5165 16.5769 14.4248 17.021 13.2009 17.021H5.40059C4.17905 17.021 3.08813 16.5777 2.2458 15.7385C1.30767 14.8027 0.791504 13.4838 0.791504 12.024V6.58683C0.791504 3.73445 2.77938 1.5835 5.41563 1.5835H13.1882ZM13.1882 2.771H5.41563C3.42459 2.771 1.979 4.3757 1.979 6.58683V12.024C1.979 13.1664 2.37167 14.1868 3.08417 14.897C3.6985 15.5105 4.50046 15.8335 5.40296 15.8335H13.1882C13.1898 15.8319 13.1961 15.8335 13.2009 15.8335C14.1042 15.8335 14.9053 15.5105 15.5197 14.897C16.233 14.1868 16.6248 13.1664 16.6248 12.024V6.58683C16.6248 4.3757 15.1793 2.771 13.1882 2.771ZM14.4359 6.43546C14.6425 6.68959 14.6037 7.06325 14.3496 7.27067L10.8314 10.1302C10.3865 10.4833 9.8545 10.6598 9.3233 10.6598C8.79367 10.6598 8.26563 10.4848 7.82388 10.1349L4.27325 7.27225C4.01755 7.06642 3.97796 6.69196 4.183 6.43705C4.38963 6.18292 4.7633 6.14255 5.01821 6.34759L8.56567 9.20709C9.01138 9.56017 9.63917 9.56017 10.088 9.20392L13.5999 6.34917C13.8548 6.14096 14.2285 6.18055 14.4359 6.43546Z" fill="#6B1687"/>
</svg>
