<svg width="16" height="19" viewBox="0 0 16 19" fill="none" xmlns="http://www.w3.org/2000/svg">
<rect y="0.25" width="16" height="16" rx="8" fill="#0910FF"/>
<path d="M7.47 11.35C7.01667 11.35 6.60333 11.2667 6.23 11.1C5.86333 10.9267 5.55333 10.6767 5.3 10.35L5.94 9.71C6.09333 9.94333 6.30333 10.13 6.57 10.27C6.83667 10.4033 7.13333 10.47 7.46 10.47C7.76667 10.47 8.03 10.4133 8.25 10.3C8.47667 10.18 8.65333 10.0133 8.78 9.8C8.91333 9.58667 8.98 9.34 8.98 9.06C8.98 8.77333 8.91333 8.52667 8.78 8.32C8.65333 8.10667 8.47333 7.94333 8.24 7.83C8.00667 7.71667 7.73 7.66 7.41 7.66C7.29 7.66 7.17 7.67 7.05 7.69C6.93 7.70333 6.81333 7.72667 6.7 7.76L7.1 7.22C7.22667 7.16 7.36333 7.11333 7.51 7.08C7.65667 7.04667 7.80333 7.03 7.95 7.03C8.32333 7.03 8.65667 7.11667 8.95 7.29C9.25 7.46333 9.48667 7.70667 9.66 8.02C9.84 8.33333 9.93 8.69667 9.93 9.11C9.93 9.55 9.82333 9.94 9.61 10.28C9.40333 10.6133 9.11667 10.8767 8.75 11.07C8.38333 11.2567 7.95667 11.35 7.47 11.35ZM6.7 7.76V7.19L8.73 4.88L9.85 4.87L7.76 7.24L6.7 7.76ZM5.63 5.15V4.31H9.85V4.87L9.03 5.15H5.63Z" fill="white"/>
</svg>
