<svg width="17" height="17" viewBox="0 0 17 17" fill="none" xmlns="http://www.w3.org/2000/svg">
<path fill-rule="evenodd" clip-rule="evenodd" d="M2.45117 3.00654C2.45275 3.00654 2.41317 3.04771 2.3633 3.09679C2.17171 3.28283 1.77509 3.66996 1.77109 4.47983C1.7648 5.61271 2.50975 7.71616 6.0968 11.3024C9.66721 14.8712 11.7675 15.6249 12.9028 15.6249H12.9194C13.7293 15.621 14.1156 15.2235 14.3024 15.0327C14.3594 14.9742 14.4053 14.9314 14.4378 14.9045C15.2263 14.1112 15.63 13.5207 15.6261 13.1422C15.6205 12.7559 15.14 12.2991 14.4758 11.6674C14.2644 11.4663 14.0348 11.2478 13.7926 11.0055C13.1648 10.3793 12.8537 10.4862 12.1697 10.7269C11.2236 11.0586 9.9253 11.5098 7.90813 9.49187C5.8878 7.47312 6.33984 6.17637 6.67075 5.23033C6.90984 4.54633 7.01909 4.23441 6.3905 3.60583C6.1443 3.36041 5.92342 3.12766 5.71996 2.91391C5.09217 2.25366 4.63934 1.77629 4.25538 1.77075H4.24905C3.86984 1.77075 3.28084 2.17608 2.44721 3.00971C2.44959 3.00733 2.45038 3.00654 2.45117 3.00654ZM12.9035 16.8124C10.9307 16.8124 8.35859 15.2417 5.25763 12.1424C2.1448 9.03033 0.571754 6.45029 0.583562 4.4735C0.590754 3.16725 1.27555 2.49829 1.53284 2.24733C1.5463 2.23071 1.59221 2.18558 1.60805 2.16975C2.7433 1.03371 3.50884 0.574539 4.27042 0.583126C5.15471 0.595122 5.78409 1.25696 6.5805 2.09533C6.77763 2.30275 6.99138 2.52837 7.22967 2.76587C8.3855 3.92171 8.05617 4.86458 7.79175 5.62141C7.50359 6.44712 7.25421 7.15962 8.7473 8.65271C10.242 10.1458 10.9545 9.89641 11.777 9.60587C12.5346 9.34146 13.4751 9.01054 14.6325 10.1664C14.8669 10.4007 15.0893 10.6121 15.2944 10.8076C16.1367 11.608 16.8017 12.2405 16.8129 13.1272C16.8223 13.8832 16.3631 14.6535 15.2295 15.788L14.7275 15.4476L15.1519 15.8624C14.9009 16.1197 14.2328 16.8053 12.9257 16.8124H12.9035Z" fill="#00137F"/>
</svg>
