<svg width="14" height="22" viewBox="0 0 14 22" fill="none" xmlns="http://www.w3.org/2000/svg">
<path d="M4.13758 14.1376L2.63758 13.1376C1.83758 12.6043 1.30424 12.9154 1.13758 13.1376C0.737578 13.9376 1.30424 14.4709 1.63758 14.6376L4.13758 16.1376C4.93758 16.5376 5.80424 15.9709 6.13758 15.6376L8.63758 12.1376L10.6376 14.6376L11.1376 18.6376C11.1376 19.4376 11.8042 19.6376 12.1376 19.6376C12.9376 19.2376 13.1376 18.8042 13.1376 18.6376L12.6376 14.1376L10.6376 11.1376V7.13757L12.6376 4.63757C13.0376 3.83757 12.8042 3.30424 12.6376 3.13758C11.8376 2.73758 11.3042 3.30424 11.1376 3.63758L9.63758 5.63759C8.43758 4.83759 6.80424 5.30425 6.13758 5.63759L3.63758 9.13759C3.23758 9.93759 3.47091 10.4709 3.63758 10.6376C4.03758 11.0376 4.80424 10.8043 5.13758 10.6376L6.63758 8.63759V10.6376L4.13758 14.1376Z" stroke="#6B1687"/>
<circle cx="8" cy="2" r="1.5" stroke="#6B1687"/>
<circle cx="7" cy="20" r="2" fill="#6B1687"/>
</svg>
