<svg width="60" height="60" viewBox="0 0 60 60" fill="none" xmlns="http://www.w3.org/2000/svg">
<rect width="60" height="60" rx="30" fill="#DEFFBE"/>
<path d="M27.6104 14.1772C28.39 14.0605 29.1879 14 30 14C32.2916 14 34.4707 14.4818 36.4416 15.3496M27.6104 14.1772L30.9351 17.6364M27.6104 14.1772C24.154 14.6948 21.0591 16.318 18.6973 18.6753M30.9351 17.6364L36.4416 15.3496M30.9351 17.6364V24.0779M36.4416 15.3496C39.7822 16.8205 42.5244 19.4006 44.2018 22.6234M44.2018 22.6234C45.3507 24.8307 46 27.3395 46 30C46 30.2437 45.9946 30.4862 45.9838 30.7273M44.2018 22.6234L42.1558 27.7143M42.1558 27.7143L45.9838 30.7273M42.1558 27.7143L35.8182 28.7532M45.9838 30.7273C45.843 33.874 44.7933 36.7842 43.0909 39.2017M34.5714 45.3374C33.1229 45.7685 31.5885 46 30 46C27.1285 46 24.4337 45.2436 22.1039 43.9191M34.5714 45.3374L36.6494 39.974M34.5714 45.3374C38.0573 44.3 41.0453 42.1066 43.0909 39.2017M36.6494 39.974L43.0909 39.2017M36.6494 39.974L32.9091 34.6753M15.5895 36.961C14.571 34.8564 14 32.4949 14 30C14 29.3316 14.041 28.6728 14.1206 28.026M15.5895 36.961L22.1039 37.7922M15.5895 36.961C17.0062 39.8883 19.2885 42.3185 22.1039 43.9191M22.1039 37.7922V43.9191M22.1039 37.7922L26.0519 33.6364M14.1206 28.026L18.8831 24.2857M14.1206 28.026C14.5678 24.3914 16.2338 21.134 18.6973 18.6753M18.8831 24.2857L18.6973 18.6753M18.8831 24.2857L25.4286 27.1948M25.4286 27.1948L30.9351 24.0779M25.4286 27.1948L26.0519 33.6364M30.9351 24.0779L35.8182 28.7532M35.8182 28.7532L32.9091 34.6753M32.9091 34.6753L26.0519 33.6364" stroke="#FF0A0A" stroke-width="2"/>
<path d="M27.6104 14.1772C28.39 14.0605 29.1879 14 30 14C32.2916 14 34.4707 14.4818 36.4416 15.3496M27.6104 14.1772L30.9351 17.6364M27.6104 14.1772C24.154 14.6948 21.0591 16.318 18.6973 18.6753M30.9351 17.6364L36.4416 15.3496M30.9351 17.6364V24.0779M36.4416 15.3496C39.7822 16.8205 42.5244 19.4006 44.2018 22.6234M44.2018 22.6234C45.3507 24.8307 46 27.3395 46 30C46 30.2437 45.9946 30.4862 45.9838 30.7273M44.2018 22.6234L42.1558 27.7143M42.1558 27.7143L45.9838 30.7273M42.1558 27.7143L35.8182 28.7532M45.9838 30.7273C45.843 33.874 44.7933 36.7842 43.0909 39.2017M34.5714 45.3374C33.1229 45.7685 31.5885 46 30 46C27.1285 46 24.4337 45.2436 22.1039 43.9191M34.5714 45.3374L36.6494 39.974M34.5714 45.3374C38.0573 44.3 41.0453 42.1066 43.0909 39.2017M36.6494 39.974L43.0909 39.2017M36.6494 39.974L32.9091 34.6753M15.5895 36.961C14.571 34.8564 14 32.4949 14 30C14 29.3316 14.041 28.6728 14.1206 28.026M15.5895 36.961L22.1039 37.7922M15.5895 36.961C17.0062 39.8883 19.2885 42.3185 22.1039 43.9191M22.1039 37.7922V43.9191M22.1039 37.7922L26.0519 33.6364M14.1206 28.026L18.8831 24.2857M14.1206 28.026C14.5678 24.3914 16.2338 21.134 18.6973 18.6753M18.8831 24.2857L18.6973 18.6753M18.8831 24.2857L25.4286 27.1948M25.4286 27.1948L30.9351 24.0779M25.4286 27.1948L26.0519 33.6364M30.9351 24.0779L35.8182 28.7532M35.8182 28.7532L32.9091 34.6753M32.9091 34.6753L26.0519 33.6364" stroke="url(#paint0_linear_2256_380)" stroke-width="2"/>
<defs>
<linearGradient id="paint0_linear_2256_380" x1="30" y1="14" x2="30" y2="46" gradientUnits="userSpaceOnUse">
<stop stop-color="#008D56"/>
<stop offset="1" stop-color="#73D45F"/>
</linearGradient>
</defs>
</svg>
