<svg width="60" height="60" viewBox="0 0 60 60" fill="none" xmlns="http://www.w3.org/2000/svg">
<rect width="60" height="60" rx="30" fill="#E3EEFF"/>
<path fill-rule="evenodd" clip-rule="evenodd" d="M34.5434 17C35.0399 17 35.4429 17.403 35.4429 17.8995L35.4434 18.9163C37.1946 19.0364 38.649 19.6362 39.6784 20.6678C40.8022 21.7964 41.3935 23.4191 41.3875 25.3656V36.3074C41.3875 40.3037 38.8497 42.7863 34.7658 42.7863H24.6217C20.5378 42.7863 18 40.2689 18 36.2162V25.3632C18 21.5939 20.2633 19.1744 23.9544 18.9168L23.9552 17.8995C23.9552 17.403 24.3582 17 24.8547 17C25.3512 17 25.7542 17.403 25.7542 17.8995L25.7539 18.8938H33.6432L33.6438 17.8995C33.6438 17.403 34.0468 17 34.5434 17ZM39.5885 27.6791H19.799V36.2162C19.799 39.2938 21.5117 40.9873 24.6217 40.9873H34.7658C37.8758 40.9873 39.5885 39.325 39.5885 36.3074L39.5885 27.6791ZM35.0323 35.2258C35.5289 35.2258 35.9319 35.6288 35.9319 36.1253C35.9319 36.6219 35.5289 37.0249 35.0323 37.0249C34.5358 37.0249 34.128 36.6219 34.128 36.1253C34.128 35.6288 34.525 35.2258 35.0215 35.2258H35.0323ZM29.7102 35.2258C30.2067 35.2258 30.6097 35.6288 30.6097 36.1253C30.6097 36.6219 30.2067 37.0249 29.7102 37.0249C29.2136 37.0249 28.8059 36.6219 28.8059 36.1253C28.8059 35.6288 29.2028 35.2258 29.6994 35.2258H29.7102ZM24.3769 35.2258C24.8734 35.2258 25.2764 35.6288 25.2764 36.1253C25.2764 36.6219 24.8734 37.0249 24.3769 37.0249C23.8803 37.0249 23.4714 36.6219 23.4714 36.1253C23.4714 35.6288 23.8695 35.2258 24.3661 35.2258H24.3769ZM35.0323 30.5643C35.5289 30.5643 35.9319 30.9673 35.9319 31.4638C35.9319 31.9603 35.5289 32.3633 35.0323 32.3633C34.5358 32.3633 34.128 31.9603 34.128 31.4638C34.128 30.9673 34.525 30.5643 35.0215 30.5643H35.0323ZM29.7102 30.5643C30.2067 30.5643 30.6097 30.9673 30.6097 31.4638C30.6097 31.9603 30.2067 32.3633 29.7102 32.3633C29.2136 32.3633 28.8059 31.9603 28.8059 31.4638C28.8059 30.9673 29.2028 30.5643 29.6994 30.5643H29.7102ZM24.3769 30.5643C24.8734 30.5643 25.2764 30.9673 25.2764 31.4638C25.2764 31.9603 24.8734 32.3633 24.3769 32.3633C23.8803 32.3633 23.4714 31.9603 23.4714 31.4638C23.4714 30.9673 23.8695 30.5643 24.3661 30.5643H24.3769ZM33.6432 20.6928H25.7539L25.7542 21.8466C25.7542 22.3431 25.3512 22.7461 24.8547 22.7461C24.3582 22.7461 23.9552 22.3431 23.9552 21.8466L23.9545 20.7201C21.2677 20.9458 19.799 22.5744 19.799 25.3632V25.8801H39.5885L39.5885 25.3632C39.5933 23.882 39.1951 22.7307 38.4047 21.9391C37.7109 21.2432 36.6966 20.8276 35.4439 20.7206L35.4429 21.8466C35.4429 22.3431 35.0399 22.7461 34.5434 22.7461C34.0468 22.7461 33.6438 22.3431 33.6438 21.8466L33.6432 20.6928Z" fill="url(#paint0_linear_2256_430)"/>
<path fill-rule="evenodd" clip-rule="evenodd" d="M34.5434 17C35.0399 17 35.4429 17.403 35.4429 17.8995L35.4434 18.9163C37.1946 19.0364 38.649 19.6362 39.6784 20.6678C40.8022 21.7964 41.3935 23.4191 41.3875 25.3656V36.3074C41.3875 40.3037 38.8497 42.7863 34.7658 42.7863H24.6217C20.5378 42.7863 18 40.2689 18 36.2162V25.3632C18 21.5939 20.2633 19.1744 23.9544 18.9168L23.9552 17.8995C23.9552 17.403 24.3582 17 24.8547 17C25.3512 17 25.7542 17.403 25.7542 17.8995L25.7539 18.8938H33.6432L33.6438 17.8995C33.6438 17.403 34.0468 17 34.5434 17ZM39.5885 27.6791H19.799V36.2162C19.799 39.2938 21.5117 40.9873 24.6217 40.9873H34.7658C37.8758 40.9873 39.5885 39.325 39.5885 36.3074L39.5885 27.6791ZM35.0323 35.2258C35.5289 35.2258 35.9319 35.6288 35.9319 36.1253C35.9319 36.6219 35.5289 37.0249 35.0323 37.0249C34.5358 37.0249 34.128 36.6219 34.128 36.1253C34.128 35.6288 34.525 35.2258 35.0215 35.2258H35.0323ZM29.7102 35.2258C30.2067 35.2258 30.6097 35.6288 30.6097 36.1253C30.6097 36.6219 30.2067 37.0249 29.7102 37.0249C29.2136 37.0249 28.8059 36.6219 28.8059 36.1253C28.8059 35.6288 29.2028 35.2258 29.6994 35.2258H29.7102ZM24.3769 35.2258C24.8734 35.2258 25.2764 35.6288 25.2764 36.1253C25.2764 36.6219 24.8734 37.0249 24.3769 37.0249C23.8803 37.0249 23.4714 36.6219 23.4714 36.1253C23.4714 35.6288 23.8695 35.2258 24.3661 35.2258H24.3769ZM35.0323 30.5643C35.5289 30.5643 35.9319 30.9673 35.9319 31.4638C35.9319 31.9603 35.5289 32.3633 35.0323 32.3633C34.5358 32.3633 34.128 31.9603 34.128 31.4638C34.128 30.9673 34.525 30.5643 35.0215 30.5643H35.0323ZM29.7102 30.5643C30.2067 30.5643 30.6097 30.9673 30.6097 31.4638C30.6097 31.9603 30.2067 32.3633 29.7102 32.3633C29.2136 32.3633 28.8059 31.9603 28.8059 31.4638C28.8059 30.9673 29.2028 30.5643 29.6994 30.5643H29.7102ZM24.3769 30.5643C24.8734 30.5643 25.2764 30.9673 25.2764 31.4638C25.2764 31.9603 24.8734 32.3633 24.3769 32.3633C23.8803 32.3633 23.4714 31.9603 23.4714 31.4638C23.4714 30.9673 23.8695 30.5643 24.3661 30.5643H24.3769ZM33.6432 20.6928H25.7539L25.7542 21.8466C25.7542 22.3431 25.3512 22.7461 24.8547 22.7461C24.3582 22.7461 23.9552 22.3431 23.9552 21.8466L23.9545 20.7201C21.2677 20.9458 19.799 22.5744 19.799 25.3632V25.8801H39.5885L39.5885 25.3632C39.5933 23.882 39.1951 22.7307 38.4047 21.9391C37.7109 21.2432 36.6966 20.8276 35.4439 20.7206L35.4429 21.8466C35.4429 22.3431 35.0399 22.7461 34.5434 22.7461C34.0468 22.7461 33.6438 22.3431 33.6438 21.8466L33.6432 20.6928Z" stroke="#1245A8" stroke-width="0.5"/>
<path fill-rule="evenodd" clip-rule="evenodd" d="M34.5434 17C35.0399 17 35.4429 17.403 35.4429 17.8995L35.4434 18.9163C37.1946 19.0364 38.649 19.6362 39.6784 20.6678C40.8022 21.7964 41.3935 23.4191 41.3875 25.3656V36.3074C41.3875 40.3037 38.8497 42.7863 34.7658 42.7863H24.6217C20.5378 42.7863 18 40.2689 18 36.2162V25.3632C18 21.5939 20.2633 19.1744 23.9544 18.9168L23.9552 17.8995C23.9552 17.403 24.3582 17 24.8547 17C25.3512 17 25.7542 17.403 25.7542 17.8995L25.7539 18.8938H33.6432L33.6438 17.8995C33.6438 17.403 34.0468 17 34.5434 17ZM39.5885 27.6791H19.799V36.2162C19.799 39.2938 21.5117 40.9873 24.6217 40.9873H34.7658C37.8758 40.9873 39.5885 39.325 39.5885 36.3074L39.5885 27.6791ZM35.0323 35.2258C35.5289 35.2258 35.9319 35.6288 35.9319 36.1253C35.9319 36.6219 35.5289 37.0249 35.0323 37.0249C34.5358 37.0249 34.128 36.6219 34.128 36.1253C34.128 35.6288 34.525 35.2258 35.0215 35.2258H35.0323ZM29.7102 35.2258C30.2067 35.2258 30.6097 35.6288 30.6097 36.1253C30.6097 36.6219 30.2067 37.0249 29.7102 37.0249C29.2136 37.0249 28.8059 36.6219 28.8059 36.1253C28.8059 35.6288 29.2028 35.2258 29.6994 35.2258H29.7102ZM24.3769 35.2258C24.8734 35.2258 25.2764 35.6288 25.2764 36.1253C25.2764 36.6219 24.8734 37.0249 24.3769 37.0249C23.8803 37.0249 23.4714 36.6219 23.4714 36.1253C23.4714 35.6288 23.8695 35.2258 24.3661 35.2258H24.3769ZM35.0323 30.5643C35.5289 30.5643 35.9319 30.9673 35.9319 31.4638C35.9319 31.9603 35.5289 32.3633 35.0323 32.3633C34.5358 32.3633 34.128 31.9603 34.128 31.4638C34.128 30.9673 34.525 30.5643 35.0215 30.5643H35.0323ZM29.7102 30.5643C30.2067 30.5643 30.6097 30.9673 30.6097 31.4638C30.6097 31.9603 30.2067 32.3633 29.7102 32.3633C29.2136 32.3633 28.8059 31.9603 28.8059 31.4638C28.8059 30.9673 29.2028 30.5643 29.6994 30.5643H29.7102ZM24.3769 30.5643C24.8734 30.5643 25.2764 30.9673 25.2764 31.4638C25.2764 31.9603 24.8734 32.3633 24.3769 32.3633C23.8803 32.3633 23.4714 31.9603 23.4714 31.4638C23.4714 30.9673 23.8695 30.5643 24.3661 30.5643H24.3769ZM33.6432 20.6928H25.7539L25.7542 21.8466C25.7542 22.3431 25.3512 22.7461 24.8547 22.7461C24.3582 22.7461 23.9552 22.3431 23.9552 21.8466L23.9545 20.7201C21.2677 20.9458 19.799 22.5744 19.799 25.3632V25.8801H39.5885L39.5885 25.3632C39.5933 23.882 39.1951 22.7307 38.4047 21.9391C37.7109 21.2432 36.6966 20.8276 35.4439 20.7206L35.4429 21.8466C35.4429 22.3431 35.0399 22.7461 34.5434 22.7461C34.0468 22.7461 33.6438 22.3431 33.6438 21.8466L33.6432 20.6928Z" stroke="url(#paint1_linear_2256_430)" stroke-width="0.5"/>
<defs>
<linearGradient id="paint0_linear_2256_430" x1="29.6938" y1="17" x2="29.6938" y2="42.7863" gradientUnits="userSpaceOnUse">
<stop stop-color="#1245A8"/>
<stop offset="1" stop-color="#3C91F4"/>
</linearGradient>
<linearGradient id="paint1_linear_2256_430" x1="29.6938" y1="17" x2="29.6938" y2="42.7863" gradientUnits="userSpaceOnUse">
<stop stop-color="#1245A8"/>
<stop offset="1" stop-color="#3C91F4"/>
</linearGradient>
</defs>
</svg>
