<svg width="60" height="60" viewBox="0 0 60 60" fill="none" xmlns="http://www.w3.org/2000/svg">
<rect width="60" height="60" rx="30" fill="#FFEAD9"/>
<path d="M19.197 35.6515L21.0145 29.5M19.197 35.6515H18.3182C17.8788 35.6515 17 36.0909 17 37.8485H28.4242M19.197 35.6515H28.4242M21.0145 29.5H33.697L31.986 23.6067M21.0145 29.5L22.7557 23.6067M22.7557 23.6067H31.986M22.7557 23.6067L24.2154 18.6662M31.986 23.6067L30.5517 18.6662M24.2154 18.6662L24.9091 16.3182C25.0556 15.8788 25.5242 15 26.2273 15H28.4242C28.7172 15 29.3909 15.1758 29.7424 15.8788L30.5517 18.6662M24.2154 18.6662H30.5517" stroke="#D94343" stroke-width="2"/>
<path d="M19.197 35.6515L21.0145 29.5M19.197 35.6515H18.3182C17.8788 35.6515 17 36.0909 17 37.8485H28.4242M19.197 35.6515H28.4242M21.0145 29.5H33.697L31.986 23.6067M21.0145 29.5L22.7557 23.6067M22.7557 23.6067H31.986M22.7557 23.6067L24.2154 18.6662M31.986 23.6067L30.5517 18.6662M24.2154 18.6662L24.9091 16.3182C25.0556 15.8788 25.5242 15 26.2273 15H28.4242C28.7172 15 29.3909 15.1758 29.7424 15.8788L30.5517 18.6662M24.2154 18.6662H30.5517" stroke="url(#paint0_linear_2256_395)" stroke-width="2"/>
<path d="M34.4046 30.0173C34.7472 29.966 35.0978 29.9395 35.4546 29.9395C36.4615 29.9395 37.419 30.1511 38.285 30.5324M34.4046 30.0173L35.8655 31.5372M34.4046 30.0173C32.8859 30.2448 31.5261 30.958 30.4883 31.9938M35.8655 31.5372L38.285 30.5324M35.8655 31.5372V34.3676M38.285 30.5324C39.7529 31.1788 40.9578 32.3124 41.6948 33.7285M41.6948 33.7285C42.1996 34.6984 42.4849 35.8008 42.4849 36.9698C42.4849 37.0769 42.4825 37.1834 42.4778 37.2893M41.6948 33.7285L40.7958 35.9654M40.7958 35.9654L42.4778 37.2893M40.7958 35.9654L38.0111 36.4219M42.4778 37.2893C42.4159 38.672 41.9547 39.9507 41.2067 41.0129M37.4633 43.7089C36.8268 43.8983 36.1526 44.0001 35.4546 44.0001C34.1929 44.0001 33.0088 43.6677 31.9851 43.0857M37.4633 43.7089L38.3763 41.3523M37.4633 43.7089C38.9949 43.2531 40.3079 42.2893 41.2067 41.0129M38.3763 41.3523L41.2067 41.0129M38.3763 41.3523L36.7329 39.0241M29.1228 40.0284C28.6752 39.1036 28.4243 38.066 28.4243 36.9698C28.4243 36.6761 28.4423 36.3866 28.4773 36.1024M29.1228 40.0284L31.9851 40.3936M29.1228 40.0284C29.7452 41.3146 30.748 42.3824 31.9851 43.0857M31.9851 40.3936V43.0857M31.9851 40.3936L33.7199 38.5676M28.4773 36.1024L30.5699 34.4589M28.4773 36.1024C28.6738 34.5054 29.4058 33.0741 30.4883 31.9938M30.5699 34.4589L30.4883 31.9938M30.5699 34.4589L33.446 35.7372M33.446 35.7372L35.8655 34.3676M33.446 35.7372L33.7199 38.5676M35.8655 34.3676L38.0111 36.4219M38.0111 36.4219L36.7329 39.0241M36.7329 39.0241L33.7199 38.5676" stroke="black" stroke-width="2"/>
<path d="M34.4046 30.0173C34.7472 29.966 35.0978 29.9395 35.4546 29.9395C36.4615 29.9395 37.419 30.1511 38.285 30.5324M34.4046 30.0173L35.8655 31.5372M34.4046 30.0173C32.8859 30.2448 31.5261 30.958 30.4883 31.9938M35.8655 31.5372L38.285 30.5324M35.8655 31.5372V34.3676M38.285 30.5324C39.7529 31.1788 40.9578 32.3124 41.6948 33.7285M41.6948 33.7285C42.1996 34.6984 42.4849 35.8008 42.4849 36.9698C42.4849 37.0769 42.4825 37.1834 42.4778 37.2893M41.6948 33.7285L40.7958 35.9654M40.7958 35.9654L42.4778 37.2893M40.7958 35.9654L38.0111 36.4219M42.4778 37.2893C42.4159 38.672 41.9547 39.9507 41.2067 41.0129M37.4633 43.7089C36.8268 43.8983 36.1526 44.0001 35.4546 44.0001C34.1929 44.0001 33.0088 43.6677 31.9851 43.0857M37.4633 43.7089L38.3763 41.3523M37.4633 43.7089C38.9949 43.2531 40.3079 42.2893 41.2067 41.0129M38.3763 41.3523L41.2067 41.0129M38.3763 41.3523L36.7329 39.0241M29.1228 40.0284C28.6752 39.1036 28.4243 38.066 28.4243 36.9698C28.4243 36.6761 28.4423 36.3866 28.4773 36.1024M29.1228 40.0284L31.9851 40.3936M29.1228 40.0284C29.7452 41.3146 30.748 42.3824 31.9851 43.0857M31.9851 40.3936V43.0857M31.9851 40.3936L33.7199 38.5676M28.4773 36.1024L30.5699 34.4589M28.4773 36.1024C28.6738 34.5054 29.4058 33.0741 30.4883 31.9938M30.5699 34.4589L30.4883 31.9938M30.5699 34.4589L33.446 35.7372M33.446 35.7372L35.8655 34.3676M33.446 35.7372L33.7199 38.5676M35.8655 34.3676L38.0111 36.4219M38.0111 36.4219L36.7329 39.0241M36.7329 39.0241L33.7199 38.5676" stroke="url(#paint1_linear_2256_395)" stroke-width="2"/>
<defs>
<linearGradient id="paint0_linear_2256_395" x1="25.3485" y1="15" x2="25.3485" y2="37.8485" gradientUnits="userSpaceOnUse">
<stop stop-color="#FF6903"/>
<stop offset="1" stop-color="#FFB845"/>
</linearGradient>
<linearGradient id="paint1_linear_2256_395" x1="35.4546" y1="29.9395" x2="35.4546" y2="44.0001" gradientUnits="userSpaceOnUse">
<stop stop-color="#FF6903"/>
<stop offset="1" stop-color="#FFB845"/>
</linearGradient>
</defs>
</svg>
