<svg width="22" height="22" viewBox="0 0 22 22" fill="none" xmlns="http://www.w3.org/2000/svg">
<path fill-rule="evenodd" clip-rule="evenodd" d="M11.0002 1.8335C16.0547 1.8335 20.1668 5.94566 20.1668 11.0002C20.1668 16.0547 16.0547 20.1668 11.0002 20.1668C5.94566 20.1668 1.8335 16.0547 1.8335 11.0002C1.8335 5.94566 5.94566 1.8335 11.0002 1.8335ZM11.0002 3.2085C6.70375 3.2085 3.2085 6.70375 3.2085 11.0002C3.2085 15.2966 6.70375 18.7918 11.0002 18.7918C15.2966 18.7918 18.7918 15.2966 18.7918 11.0002C18.7918 6.70375 15.2966 3.2085 11.0002 3.2085ZM10.6896 6.50428C11.07 6.50428 11.3771 6.81228 11.3771 7.19178V11.2453L14.4983 13.1061C14.8238 13.3014 14.931 13.723 14.7367 14.0494C14.6074 14.2648 14.3792 14.3849 14.1454 14.3849C14.0253 14.3849 13.9043 14.3537 13.7934 14.2886L10.3376 12.227C10.1304 12.1024 10.0021 11.8778 10.0021 11.6358V7.19178C10.0021 6.81228 10.3101 6.50428 10.6896 6.50428Z" fill="#6B1687"/>
</svg>
