<svg width="22" height="22" viewBox="0 0 22 22" fill="none" xmlns="http://www.w3.org/2000/svg">
<path d="M14.2085 4.57417C13.7117 3.61533 12.7455 2.75 11.0002 2.75C8.06683 2.75 7.3335 5.19475 7.3335 6.41667V9.16667" stroke="black" stroke-width="2" stroke-linecap="round" stroke-linejoin="round"/>
<path fill-rule="evenodd" clip-rule="evenodd" d="M2.75 11C2.75 10.2707 3.03973 9.57118 3.55546 9.05546C4.07118 8.53973 4.77065 8.25 5.5 8.25H16.5C17.2293 8.25 17.9288 8.53973 18.4445 9.05546C18.9603 9.57118 19.25 10.2707 19.25 11V17.4167C19.25 18.146 18.9603 18.8455 18.4445 19.3612C17.9288 19.8769 17.2293 20.1667 16.5 20.1667H5.5C4.77065 20.1667 4.07118 19.8769 3.55546 19.3612C3.03973 18.8455 2.75 18.146 2.75 17.4167V11ZM11.9167 12.8333C11.9167 12.5902 11.8201 12.3571 11.6482 12.1852C11.4763 12.0132 11.2431 11.9167 11 11.9167C10.7569 11.9167 10.5237 12.0132 10.3518 12.1852C10.1799 12.3571 10.0833 12.5902 10.0833 12.8333V15.5833C10.0833 15.8264 10.1799 16.0596 10.3518 16.2315C10.5237 16.4034 10.7569 16.5 11 16.5C11.2431 16.5 11.4763 16.4034 11.6482 16.2315C11.8201 16.0596 11.9167 15.8264 11.9167 15.5833V12.8333Z" fill="black"/>
</svg>
