<svg width="14" height="10" viewBox="0 0 14 10" fill="none" xmlns="http://www.w3.org/2000/svg">
<path d="M0.37793 1C0.37793 0.734784 0.490895 0.48043 0.691975 0.292893C0.893054 0.105357 1.16578 0 1.45015 0H12.1723C12.4567 0 12.7294 0.105357 12.9305 0.292893C13.1316 0.48043 13.2445 0.734784 13.2445 1C13.2445 1.26522 13.1316 1.51957 12.9305 1.70711C12.7294 1.89464 12.4567 2 12.1723 2H1.45015C1.16578 2 0.893054 1.89464 0.691975 1.70711C0.490895 1.51957 0.37793 1.26522 0.37793 1ZM2.52236 5C2.52236 4.73478 2.63533 4.48043 2.83641 4.29289C3.03748 4.10536 3.31021 4 3.59458 4H10.0279C10.3122 4 10.585 4.10536 10.786 4.29289C10.9871 4.48043 11.1001 4.73478 11.1001 5C11.1001 5.26522 10.9871 5.51957 10.786 5.70711C10.585 5.89464 10.3122 6 10.0279 6H3.59458C3.31021 6 3.03748 5.89464 2.83641 5.70711C2.63533 5.51957 2.52236 5.26522 2.52236 5ZM5.73901 8C5.45464 8 5.18192 8.10536 4.98084 8.29289C4.77976 8.48043 4.66679 8.73478 4.66679 9C4.66679 9.26522 4.77976 9.51957 4.98084 9.70711C5.18192 9.89464 5.45464 10 5.73901 10H7.88344C8.16781 10 8.44053 9.89464 8.64161 9.70711C8.84269 9.51957 8.95565 9.26522 8.95565 9C8.95565 8.73478 8.84269 8.48043 8.64161 8.29289C8.44053 8.10536 8.16781 8 7.88344 8H5.73901Z" fill="white"/>
</svg>
