<svg width="26" height="26" viewBox="0 0 26 26" fill="none" xmlns="http://www.w3.org/2000/svg">
<path fill-rule="evenodd" clip-rule="evenodd" d="M17.1097 1.08325C17.5582 1.08325 17.9222 1.44725 17.9222 1.89575L17.9227 2.81421C19.5045 2.92266 20.8182 3.46447 21.748 4.39619C22.7631 5.41561 23.2972 6.88136 23.2918 8.63961V18.5229C23.2918 22.1325 20.9994 24.375 17.3107 24.375H8.14783C4.45908 24.375 2.16675 22.1011 2.16675 18.4405V8.63744C2.16675 5.23274 4.21106 3.04727 7.54516 2.81459L7.54582 1.89575C7.54582 1.44725 7.90982 1.08325 8.35832 1.08325C8.80682 1.08325 9.17082 1.44725 9.17082 1.89575L9.1705 2.79384H16.2967L16.2972 1.89575C16.2972 1.44725 16.6612 1.08325 17.1097 1.08325ZM21.6667 10.7293H3.79175V18.4405C3.79175 21.2204 5.33875 22.75 8.14783 22.75H17.3107C20.1197 22.75 21.6668 21.2485 21.6668 18.5229L21.6667 10.7293ZM17.5514 17.5459C17.9999 17.5459 18.3639 17.9099 18.3639 18.3584C18.3639 18.8069 17.9999 19.1709 17.5514 19.1709C17.1029 19.1709 16.7345 18.8069 16.7345 18.3584C16.7345 17.9099 17.0931 17.5459 17.5416 17.5459H17.5514ZM12.7441 17.5459C13.1926 17.5459 13.5566 17.9099 13.5566 18.3584C13.5566 18.8069 13.1926 19.1709 12.7441 19.1709C12.2956 19.1709 11.9273 18.8069 11.9273 18.3584C11.9273 17.9099 12.2858 17.5459 12.7343 17.5459H12.7441ZM7.92672 17.5459C8.37522 17.5459 8.73922 17.9099 8.73922 18.3584C8.73922 18.8069 8.37522 19.1709 7.92672 19.1709C7.47822 19.1709 7.10881 18.8069 7.10881 18.3584C7.10881 17.9099 7.46847 17.5459 7.91697 17.5459H7.92672ZM17.5514 13.3353C17.9999 13.3353 18.3639 13.6993 18.3639 14.1478C18.3639 14.5963 17.9999 14.9603 17.5514 14.9603C17.1029 14.9603 16.7345 14.5963 16.7345 14.1478C16.7345 13.6993 17.0931 13.3353 17.5416 13.3353H17.5514ZM12.7441 13.3353C13.1926 13.3353 13.5566 13.6993 13.5566 14.1478C13.5566 14.5963 13.1926 14.9603 12.7441 14.9603C12.2956 14.9603 11.9273 14.5963 11.9273 14.1478C11.9273 13.6993 12.2858 13.3353 12.7343 13.3353H12.7441ZM7.92672 13.3353C8.37522 13.3353 8.73922 13.6993 8.73922 14.1478C8.73922 14.5963 8.37522 14.9603 7.92672 14.9603C7.47822 14.9603 7.10881 14.5963 7.10881 14.1478C7.10881 13.6993 7.46847 13.3353 7.91697 13.3353H7.92672ZM16.2967 4.41884H9.1705L9.17082 5.461C9.17082 5.9095 8.80682 6.2735 8.35832 6.2735C7.90982 6.2735 7.54582 5.9095 7.54582 5.461L7.54525 4.44343C5.11833 4.6473 3.79175 6.11843 3.79175 8.63744V9.10425H21.6667L21.6668 8.63744C21.6711 7.29953 21.3114 6.25953 20.5975 5.54453C19.9708 4.91599 19.0547 4.5406 17.9231 4.44395L17.9222 5.461C17.9222 5.9095 17.5582 6.2735 17.1097 6.2735C16.6612 6.2735 16.2972 5.9095 16.2972 5.461L16.2967 4.41884Z" fill="white"/>
</svg>
